# Blender 4.1.1
# www.blender.org
mtllib HitBox_Final.mtl
o Cube.003
v 42.086937 -39.557278 -104.477646
v 42.086937 -39.557278 -50.880993
v 42.086937 -66.563492 -104.477646
v -40.388184 -39.557278 -104.477646
v -40.388184 -39.557278 -50.880993
v -40.388184 -66.563492 -104.477646
v -40.388184 -66.563492 -50.880993
v 42.086937 -66.563492 -50.880993
v 42.086937 -39.550308 -5.395781
v 42.086937 -39.557278 108.151810
v 42.086937 -66.563492 -5.395781
v -40.388184 -39.550308 -5.395781
v -40.388184 -39.557278 108.151810
v -40.388184 -66.563492 -5.395781
v -40.388184 -66.563492 108.151810
v 42.086937 -66.563492 108.151810
v 42.086937 -12.649456 -5.395781
v 42.086937 -12.649456 6.838251
v -40.388184 -12.649456 -5.395781
v -40.388184 -12.649456 6.838251
v -40.388184 -39.550308 6.924781
v 42.086937 -39.550308 6.924781
v 42.086937 -39.557278 108.151810
v -40.388184 -39.557278 108.151810
vn -0.0000 1.0000 -0.0000
vn 1.0000 -0.0000 -0.0000
vn -0.0000 -0.0000 -1.0000
vn -1.0000 -0.0000 -0.0000
vn -0.0000 -1.0000 -0.0000
vn -0.0000 -0.0000 1.0000
vn -0.0000 0.0032 1.0000
vn -0.0000 1.0000 0.0001
vt 0.125000 0.500000
vt 0.375000 0.500000
vt 0.375000 0.750000
vt 0.125000 0.750000
vt 0.375000 0.000000
vt 0.625000 0.000000
vt 0.625000 0.250000
vt 0.375000 0.250000
vt 0.625000 0.750000
vt 0.625000 1.000000
vt 0.375000 1.000000
vt 0.625000 0.500000
vt 0.875000 0.500000
vt 0.875000 0.750000
s 0
f 2/1/1 1/4/1 4/3/1 5/2/1
f 1/5/2 2/8/2 8/7/2 3/6/2
f 4/3/3 1/11/3 3/10/3 6/9/3
f 5/2/4 4/3/4 6/9/4 7/12/4
f 7/12/5 6/9/5 3/14/5 8/13/5
f 2/8/6 5/2/6 7/12/6 8/7/6
f 9/5/2 10/8/2 16/7/2 11/6/2
f 12/3/3 9/11/3 11/10/3 14/9/3
f 13/2/4 12/3/4 14/9/4 15/12/4
f 15/12/5 14/9/5 11/14/5 16/13/5
f 10/8/6 13/2/6 15/12/6 16/7/6
f 17/5/2 18/8/2 22/7/2 9/6/2
f 18/1/1 17/4/1 19/3/1 20/2/1
f 19/3/3 17/11/3 9/10/3 12/9/3
f 20/2/4 19/3/4 12/9/4 21/12/4
f 18/8/7 20/2/7 21/12/7 22/7/7
f 23/1/8 22/4/8 21/3/8 24/2/8
