# Blender 4.5.1 LTS
# www.blender.org
o Plane.004
v -40.313217 29.076040 35.231247
v -43.095169 48.186787 35.327484
v -40.427040 29.093285 -40.398232
v -42.899227 48.167950 -40.416924
v -43.371536 37.766632 -40.417847
v -43.195873 37.855003 35.298656
v -43.185802 48.221394 -2.539246
v -40.683819 28.886086 -2.509468
v -43.530262 37.791111 -2.545868
v 40.313217 29.076046 35.231243
v 43.095169 48.186790 35.327480
v 40.427032 29.093288 -40.398239
v 42.899216 48.167957 -40.416916
v 43.371529 37.766636 -40.417847
v 43.195877 37.855011 35.298653
v 43.185799 48.221397 -2.539246
v 40.683815 28.886087 -2.509476
v 43.530251 37.791115 -2.545860
v -43.363068 37.823059 16.376396
v -43.358032 43.006252 -2.542557
v -43.145523 43.020897 35.313068
v -43.140488 48.204090 16.394119
v 43.358025 43.006256 -2.542557
v 43.363068 37.823063 16.376396
v 43.145523 43.020901 35.313065
v 43.140488 48.204094 16.394127
v -43.251778 43.013573 16.385254
v 43.251778 43.013577 16.385254
vn -0.9525 -0.3045 -0.0081
vn -0.9525 -0.3044 0.0089
vn 0.9998 0.0214 0.0056
vn 0.9525 -0.3045 -0.0081
vn 0.9500 -0.3120 0.0089
vn 0.9994 0.0330 -0.0076
vn -0.9998 0.0214 0.0056
vn -0.9990 0.0454 -0.0059
vn -0.9994 0.0330 0.0056
vn -0.9994 0.0330 0.0088
vn -0.9997 0.0214 0.0088
vn 0.9997 0.0214 0.0088
vn 0.9994 0.0330 0.0088
vn 0.9994 0.0330 0.0056
vn -0.9469 -0.3215 -0.0038
vn -0.9513 -0.3082 0.0109
vn -0.9500 -0.3120 0.0089
vn 0.9999 0.0097 0.0024
vn 0.9469 -0.3215 -0.0038
vn 0.9513 -0.3082 0.0109
vn 0.9525 -0.3044 0.0089
vn 0.9994 0.0330 -0.0042
vn 0.9990 0.0454 -0.0059
vn -0.9999 0.0097 0.0024
vn -0.9994 0.0330 -0.0042
vn -0.9994 0.0330 -0.0076
vn -0.9998 0.0214 0.0024
vn -0.9999 0.0097 0.0056
vn 0.9999 0.0097 0.0056
vn 0.9998 0.0214 0.0024
vt 0.137635 0.500051
vt 0.253492 0.000696
vt 0.255708 0.500902
vt 0.137007 0.749888
vt 0.255708 0.249973
vt 0.323897 0.000137
vt 0.324211 0.250043
vt 0.509200 0.999304
vt 0.393343 0.499950
vt 0.511415 0.499098
vt 0.392715 0.250112
vt 0.392087 0.000275
vt 0.508503 0.000792
vt 0.256938 1.000000
vt 0.255708 0.499946
vt 0.324525 0.499948
vt 0.068190 0.999863
vt 0.000000 0.750027
vt 0.068504 0.749958
vt 0.068818 0.500052
vt 0.001230 0.000000
vt 0.138460 0.000060
vt 0.000000 0.500054
vt 0.136379 0.999726
vt 0.252795 0.999208
vt 0.255708 0.000000
vt 0.394168 0.999941
vt 0.000000 1.000000
s 0
f 9/1/1 3/2/1 8/3/1
f 19/4/2 9/1/2 8/3/2
f 26/5/3 25/6/3 28/7/3
f 12/8/4 18/9/4 17/10/4
f 24/11/5 15/12/5 10/13/5
f 13/14/6 16/15/6 23/16/6
f 21/17/7 22/18/7 27/19/7
f 20/20/8 4/21/8 5/22/8
f 27/19/9 7/23/9 20/20/9
f 19/4/10 20/20/10 9/1/10
f 6/24/11 27/19/11 19/4/11
f 28/7/12 15/12/12 24/11/12
f 23/16/13 24/11/13 18/9/13
f 16/15/14 28/7/14 23/16/14
f 9/1/15 5/22/15 3/2/15
f 8/3/16 1/25/16 19/4/16
f 1/25/17 6/24/17 19/4/17
f 26/5/18 11/26/18 25/6/18
f 12/8/19 14/27/19 18/9/19
f 10/13/20 17/10/20 24/11/20
f 17/10/21 18/9/21 24/11/21
f 18/9/22 14/27/22 23/16/22
f 14/27/23 13/14/23 23/16/23
f 21/17/24 2/28/24 22/18/24
f 5/22/25 9/1/25 20/20/25
f 20/20/26 7/23/26 4/21/26
f 27/19/27 22/18/27 7/23/27
f 19/4/7 27/19/7 20/20/7
f 6/24/28 21/17/28 27/19/28
f 28/7/29 25/6/29 15/12/29
f 23/16/3 28/7/3 24/11/3
f 16/15/30 26/5/30 28/7/30
