# Blender 4.5.1 LTS
# www.blender.org
o Plane.002
v -40.798363 34.467579 102.315491
v -41.590046 44.199856 102.459503
v -41.939472 34.280251 82.376587
v -42.631813 44.260895 82.401611
v -40.313217 29.076040 35.231247
v -43.095169 48.186787 35.327484
v -40.427040 29.093285 -40.398232
v -42.899227 48.167950 -40.416924
v -42.852341 45.424793 -58.498581
v -41.734062 49.850117 -58.458115
v -41.826687 45.296200 -88.400528
v -40.693127 48.792522 -88.245178
v -42.323032 45.253700 88.463417
v -41.218765 49.186974 88.340515
v -43.287586 45.314865 58.561172
v -42.112328 49.852669 58.508698
v -41.300762 49.510818 -73.332703
v -42.564346 45.322529 -73.467651
v -42.619228 47.883446 -58.495895
v -41.553905 47.066483 -88.359894
v -43.371536 37.766632 -40.417847
v -43.195873 37.855003 35.298656
v -43.185802 48.221394 -2.539246
v -40.683819 28.886086 -2.509468
v -43.084385 47.854965 58.548218
v -41.806393 49.844452 73.439011
v -42.905056 45.273708 73.519745
v -42.155289 44.225971 92.432999
v -41.444183 39.308620 102.433006
v -42.510960 39.235138 82.401421
v -41.467102 34.359722 92.382477
v -42.088493 47.223175 88.421051
v -42.177254 47.519535 -73.430847
v -43.530262 37.791111 -2.545868
v -42.714447 47.496506 73.502998
v -42.046055 39.273632 92.421906
v 40.798363 34.467583 102.315491
v 41.590050 44.199860 102.459503
v 41.939476 34.280254 82.376579
v 42.631813 44.260899 82.401611
v 40.313217 29.076046 35.231243
v 43.095169 48.186790 35.327480
v 40.427032 29.093288 -40.398239
v 42.899216 48.167957 -40.416916
v 42.852333 45.424797 -58.498581
v 41.734055 49.850121 -58.458099
v 41.826668 45.296204 -88.400528
v 40.693108 48.792526 -88.245178
v 42.323036 45.253704 88.463409
v 41.218765 49.186977 88.340515
v 43.287582 45.314873 58.561172
v 42.112328 49.852673 58.508698
v 41.300751 49.510826 -73.332703
v 42.564339 45.322533 -73.467636
v 42.619225 47.883450 -58.495895
v 41.553894 47.066486 -88.359894
v 43.371529 37.766636 -40.417847
v 43.195877 37.855011 35.298653
v 43.185799 48.221397 -2.539246
v 40.683815 28.886087 -2.509476
v 43.084381 47.854969 58.548214
v 41.806396 49.844456 73.439011
v 42.905052 45.273716 73.519737
v 42.155289 44.225975 92.432991
v 41.444191 39.308624 102.432999
v 42.510963 39.235142 82.401421
v 41.467110 34.359730 92.382469
v 42.088501 47.223179 88.421051
v 42.177246 47.519539 -73.430847
v 43.530251 37.791115 -2.545860
v 42.714447 47.496513 73.502998
v 42.046059 39.273636 92.421906
v -43.363068 37.823059 16.376396
v -43.358032 43.006252 -2.542557
v -42.260418 48.670479 73.471008
v 41.745125 39.291130 97.427452
v -42.398239 47.701488 -65.963364
v -42.401470 47.359840 80.962021
v -41.739010 48.515179 -73.381775
v -42.100670 41.749802 92.427452
v -42.176643 48.866783 -58.477005
v -43.145523 43.020897 35.313068
v -41.517113 41.754238 102.446259
v -41.653629 48.205074 88.380783
v -41.517410 49.680470 -65.895401
v -43.140488 48.204090 16.394119
v -41.512577 49.515713 80.889763
v -41.872665 44.212914 97.446251
v 43.358025 43.006256 -2.542557
v 42.260422 48.670483 73.471001
v 43.363068 37.823063 16.376396
v -41.745117 39.291126 97.427460
v 42.398232 47.701492 -65.963364
v 42.401474 47.359844 80.962021
v 41.739006 48.515182 -73.381775
v 42.100677 41.749805 92.427452
v 42.176636 48.866787 -58.477005
v 43.145523 43.020901 35.313065
v 41.517128 41.754242 102.446251
v 41.653625 48.205078 88.380783
v 41.517410 49.680473 -65.895401
v 43.140488 48.204094 16.394127
v 41.512581 49.515717 80.889763
v 41.872673 44.212917 97.446251
v -41.808891 41.752018 97.436852
v -43.251778 43.013573 16.385254
v 41.957817 48.690983 -65.929382
v 41.808899 41.752022 97.436852
v 43.251778 43.013577 16.385254
v -41.957825 48.690979 -65.929382
v 41.957024 48.437782 80.925888
v -41.957024 48.437775 80.925896
vn -0.9226 0.3822 0.0532
vn 0.9125 0.4061 0.0498
vn 0.9125 -0.4074 0.0364
vn -0.9910 -0.1322 0.0200
vn -0.9525 -0.3045 -0.0081
vn -0.9525 -0.3044 0.0089
vn 0.9954 0.0857 0.0433
vn 0.9323 0.3611 0.0193
vn 0.9987 0.0221 -0.0464
vn 0.9998 0.0214 0.0056
vn -0.9836 -0.1741 0.0464
vn -0.9128 -0.4046 0.0567
vn 0.9525 -0.3045 -0.0081
vn -0.9986 0.0221 -0.0474
vn -0.9981 0.0221 -0.0581
vn -0.9920 0.1173 -0.0465
vn 0.9960 0.0856 0.0257
vn -0.9140 -0.4041 0.0364
vn 0.9500 -0.3120 0.0089
vn 0.9994 0.0330 -0.0076
vn -0.9913 0.1173 -0.0600
vn -0.9998 0.0214 0.0056
vn 0.9132 -0.4044 0.0504
vn -0.9960 0.0856 0.0257
vn -0.9990 0.0454 -0.0059
vn 0.9920 0.1173 -0.0465
vn -0.8987 0.4378 0.0257
vn -0.9941 0.1014 0.0389
vn 0.9980 0.0261 -0.0581
vn 0.9892 0.1334 -0.0599
vn 0.9836 -0.1741 0.0464
vn 0.9842 -0.1740 0.0334
vn 0.9979 0.0261 -0.0601
vn 0.9979 0.0221 -0.0601
vn 0.9981 0.0221 -0.0581
vn -0.9994 0.0330 0.0056
vn -0.9994 0.0330 0.0088
vn -0.9997 0.0214 0.0088
vn -0.9140 -0.4041 0.0369
vn -0.9125 -0.4074 0.0369
vn -0.9125 -0.4074 0.0364
vn -0.9979 0.0221 -0.0601
vn -0.9979 0.0261 -0.0601
vn -0.9980 0.0261 -0.0581
vn 0.9997 0.0214 0.0088
vn 0.9994 0.0330 0.0088
vn 0.9994 0.0330 0.0056
vn 0.9125 -0.4074 0.0369
vn 0.9140 -0.4041 0.0369
vn 0.9140 -0.4041 0.0364
vn 0.9127 0.4061 0.0457
vn 0.9230 0.3821 0.0457
vn 0.9228 0.3821 0.0495
vn -0.9309 0.3615 0.0527
vn -0.9311 0.3614 0.0492
vn -0.9228 0.3821 0.0495
vn -0.9124 0.4061 0.0498
vn 0.9226 0.3822 0.0532
vn 0.9110 -0.4107 0.0359
vn -0.9950 -0.0944 0.0317
vn -0.9842 -0.1740 0.0334
vn -0.9469 -0.3215 -0.0038
vn -0.9500 -0.3120 0.0109
vn 0.9921 0.1190 0.0388
vn 0.8985 0.4378 0.0327
vn 0.9986 0.0240 -0.0474
vn 0.9999 0.0097 0.0024
vn -0.9870 -0.1532 0.0490
vn -0.9127 -0.4046 0.0567
vn -0.8924 -0.4484 0.0509
vn 0.9469 -0.3215 -0.0038
vn -0.9986 0.0240 -0.0464
vn -0.9981 0.0261 -0.0562
vn -0.9923 0.1147 -0.0478
vn 0.9965 0.0799 0.0266
vn -0.9125 -0.4074 0.0359
vn 0.9525 -0.3044 0.0109
vn -0.0000 -0.0000 1.0000
vn 0.9990 0.0454 -0.0042
vn -0.9887 0.1335 -0.0680
vn -0.9957 -0.0000 0.0926
vn -0.9999 0.0097 0.0024
vn 0.8918 -0.4486 0.0579
vn -0.9965 0.0798 0.0266
vn -0.9994 0.0330 -0.0042
vn -0.9994 0.0330 -0.0076
vn 0.9923 0.1147 -0.0478
vn -0.9319 0.3613 0.0317
vn -0.9323 0.3611 0.0193
vn -0.9919 0.1191 0.0438
vn -0.9954 0.0857 0.0433
vn 0.9980 0.0301 -0.0562
vn 0.9908 0.1173 -0.0680
vn 0.9870 -0.1532 0.0490
vn 0.9953 -0.0944 0.0198
vn 0.9979 0.0301 -0.0581
vn 0.9981 0.0261 -0.0562
vn -0.9998 0.0214 0.0024
vn -0.9999 0.0097 0.0056
vn -0.9110 -0.4107 0.0364
vn -0.9110 -0.4107 0.0359
vn -0.9979 0.0301 -0.0581
vn -0.9980 0.0301 -0.0562
vn 0.9999 0.0097 0.0056
vn 0.9998 0.0214 0.0024
vn 0.9110 -0.4107 0.0364
vn 0.9125 -0.4074 0.0359
vn 0.9311 0.3614 0.0492
vn 0.9309 0.3615 0.0527
vn -0.9230 0.3821 0.0457
vn -0.9127 0.4061 0.0457
vt 0.529774 0.825649
vt 0.519833 0.923593
vt 0.515624 0.825189
vt 0.661411 0.099554
vt 0.651470 0.001609
vt 0.664354 0.001096
vt 0.644608 0.493790
vt 0.656112 0.395860
vt 0.657747 0.494284
vt 0.731028 0.296487
vt 0.761813 0.197219
vt 0.761813 0.394881
vt 0.137635 0.500051
vt 0.253492 0.000696
vt 0.255708 0.500902
vt 0.136379 0.999726
vt 0.137007 0.749888
vt 0.703194 0.197350
vt 0.675561 0.099094
vt 0.677237 0.000583
vt 0.643258 0.395565
vt 0.658469 0.198012
vt 0.673884 0.197605
vt 0.577742 0.529401
vt 0.511481 0.397141
vt 0.544161 0.397146
vt 0.255708 0.249973
vt 0.323897 0.000137
vt 0.324211 0.250043
vt 0.737317 0.000667
vt 0.732743 0.197862
vt 0.714385 0.002252
vt 0.719524 0.198557
vt 0.509200 0.999304
vt 0.393343 0.499950
vt 0.511415 0.499098
vt 0.511415 0.000102
vt 0.576841 0.132486
vt 0.544161 0.132491
vt 0.543925 0.198600
vt 0.511481 0.132497
vt 0.577742 0.000236
vt 0.641610 0.132055
vt 0.702951 0.394878
vt 0.717889 0.296981
vt 0.706305 0.199251
vt 0.392087 0.000275
vt 0.508503 0.000792
vt 0.256938 1.000000
vt 0.324525 0.499948
vt 0.575962 0.264599
vt 0.068190 0.999863
vt 0.000000 0.750027
vt 0.068504 0.749958
vt 0.677175 0.790599
vt 0.646164 0.592014
vt 0.659382 0.592709
vt 0.542247 0.727598
vt 0.571314 0.530324
vt 0.571557 0.727853
vt 0.068818 0.500052
vt 0.001230 0.000000
vt 0.138460 0.000060
vt 0.641610 0.397582
vt 0.576841 0.397151
vt 0.526831 0.727191
vt 0.511620 0.529637
vt 0.537818 0.530113
vt 0.543924 0.826109
vt 0.571557 0.925203
vt 0.511448 0.330980
vt 0.543689 0.264928
vt 0.543925 0.331037
vt 0.576402 0.331095
vt 0.639760 0.266508
vt 0.701671 0.594046
vt 0.672601 0.593403
vt 0.670887 0.494779
vt 0.669172 0.396154
vt 0.575962 0.265038
vt 0.000000 0.500054
vt 0.729314 0.395111
vt 0.716254 0.395406
vt 0.704750 0.297476
vt 0.576402 0.198543
vt 0.543689 0.264709
vt 0.511448 0.198658
vt 0.392715 0.250112
vt 0.255708 0.499946
vt 0.647261 0.100014
vt 0.511415 0.726785
vt 0.532717 0.924107
vt 0.643053 0.395565
vt 0.252795 0.999208
vt 0.703194 0.000000
vt 0.669455 0.395090
vt 0.643053 0.198418
vt 0.511415 0.529536
vt 0.255708 0.000000
vt 0.760732 0.000000
vt 0.394168 0.999941
vt 0.643053 -0.000000
vt 0.639760 0.263129
vt 0.000000 1.000000
vt 0.654243 0.789013
vt 0.643053 0.529637
vt 0.545600 0.924620
vt 0.511415 0.264819
vt 0.700591 0.791265
vt 0.701671 0.396385
vt 0.703194 0.395700
s 0
f 112/1/1 14/2/1 87/3/1
f 111/4/2 50/5/2 100/6/2
f 85/7/3 81/8/3 110/9/3
f 93/10/4 54/11/4 45/12/4
f 34/13/5 7/14/5 24/15/5
f 22/16/6 73/17/6 24/15/6
f 63/18/7 94/19/7 68/20/7
f 52/21/8 90/22/8 71/23/8
f 30/24/9 28/25/9 80/26/9
f 102/27/10 98/28/10 109/29/10
f 56/30/11 54/11/11 69/31/11
f 48/32/12 69/31/12 95/33/12
f 43/34/13 70/35/13 60/36/13
f 40/37/14 72/38/14 96/39/14
f 108/40/15 64/41/15 96/39/15
f 66/42/16 67/43/16 72/38/16
f 51/44/17 71/23/17 63/18/17
f 107/45/18 53/46/18 95/33/18
f 70/35/19 58/47/19 41/48/19
f 44/49/20 89/50/20 70/35/20
f 65/51/21 72/38/21 67/43/21
f 82/52/22 86/53/22 106/54/22
f 20/55/23 17/56/23 79/57/23
f 35/58/24 15/59/24 27/60/24
f 74/61/25 8/62/25 21/63/25
f 31/64/26 30/24/26 36/65/26
f 75/66/27 16/67/27 25/68/27
f 78/69/28 27/60/28 13/70/28
f 88/71/29 83/72/29 105/73/29
f 36/65/30 92/74/30 1/75/30
f 18/76/31 20/55/31 33/77/31
f 18/76/32 77/78/32 19/79/32
f 105/73/33 29/80/33 92/74/33
f 80/26/34 92/74/34 36/65/34
f 28/25/35 105/73/35 80/26/35
f 106/54/36 23/81/36 74/61/36
f 73/17/37 74/61/37 34/13/37
f 22/16/38 106/54/38 73/17/38
f 93/10/39 95/33/39 69/31/39
f 55/82/40 107/45/40 93/10/40
f 97/83/41 101/84/41 107/45/41
f 76/85/42 96/39/42 72/38/42
f 65/51/43 108/40/43 76/85/43
f 99/86/44 104/87/44 108/40/44
f 109/29/45 58/47/45 91/88/45
f 89/50/46 91/88/46 70/35/46
f 59/89/47 109/29/47 89/50/47
f 110/9/48 19/79/48 77/78/48
f 79/57/49 77/78/49 33/77/49
f 17/56/50 110/9/50 79/57/50
f 94/19/51 100/6/51 68/20/51
f 71/23/52 111/4/52 94/19/52
f 90/22/53 103/90/53 111/4/53
f 75/66/54 87/3/54 26/91/54
f 35/58/55 112/1/55 75/66/55
f 78/69/56 84/92/56 112/1/56
f 112/1/57 84/92/57 14/2/57
f 111/4/58 103/90/58 50/5/58
f 85/7/59 10/93/59 81/8/59
f 45/12/60 55/82/60 93/10/60
f 93/10/61 69/31/61 54/11/61
f 34/13/62 21/63/62 7/14/62
f 24/15/63 5/94/63 22/16/63
f 73/17/6 34/13/6 24/15/6
f 68/20/64 49/95/64 63/18/64
f 63/18/7 71/23/7 94/19/7
f 71/23/65 61/96/65 52/21/65
f 52/21/8 62/97/8 90/22/8
f 80/26/9 36/65/9 30/24/9
f 30/24/66 4/98/66 28/25/66
f 102/27/67 42/99/67 98/28/67
f 56/30/68 47/100/68 54/11/68
f 95/33/69 53/46/69 48/32/69
f 48/32/70 56/30/70 69/31/70
f 43/34/71 57/101/71 70/35/71
f 96/39/14 64/41/14 40/37/14
f 40/37/72 66/42/72 72/38/72
f 108/40/73 104/87/73 64/41/73
f 66/42/74 39/102/74 67/43/74
f 51/44/75 61/96/75 71/23/75
f 107/45/76 101/84/76 53/46/76
f 41/48/77 60/36/77 70/35/77
f 70/35/78 91/88/78 58/47/78
f 70/35/79 57/101/79 44/49/79
f 44/49/20 59/89/20 89/50/20
f 67/43/80 37/103/80 65/51/80
f 65/51/81 76/85/81 72/38/81
f 82/52/82 6/104/82 86/53/82
f 79/57/23 33/77/23 20/55/23
f 20/55/83 12/105/83 17/56/83
f 35/58/84 25/68/84 15/59/84
f 21/63/85 34/13/85 74/61/85
f 74/61/86 23/81/86 8/62/86
f 31/64/87 3/106/87 30/24/87
f 25/68/88 35/58/88 75/66/88
f 75/66/89 26/91/89 16/67/89
f 13/70/90 32/107/90 78/69/90
f 78/69/91 35/58/91 27/60/91
f 88/71/92 2/108/92 83/72/92
f 1/75/93 31/64/93 36/65/93
f 92/74/30 29/80/30 1/75/30
f 18/76/94 11/109/94 20/55/94
f 19/79/95 9/110/95 18/76/95
f 18/76/32 33/77/32 77/78/32
f 105/73/96 83/72/96 29/80/96
f 80/26/29 105/73/29 92/74/29
f 28/25/97 88/71/97 105/73/97
f 106/54/98 86/53/98 23/81/98
f 73/17/22 106/54/22 74/61/22
f 22/16/99 82/52/99 106/54/99
f 93/10/41 107/45/41 95/33/41
f 55/82/100 97/83/100 107/45/100
f 97/83/101 46/111/101 101/84/101
f 76/85/44 108/40/44 96/39/44
f 65/51/102 99/86/102 108/40/102
f 99/86/103 38/108/103 104/87/103
f 109/29/104 98/28/104 58/47/104
f 89/50/10 109/29/10 91/88/10
f 59/89/105 102/27/105 109/29/105
f 110/9/106 81/8/106 19/79/106
f 79/57/3 110/9/3 77/78/3
f 17/56/107 85/7/107 110/9/107
f 94/19/53 111/4/53 100/6/53
f 71/23/108 90/22/108 111/4/108
f 90/22/109 62/97/109 103/90/109
f 75/66/56 112/1/56 87/3/56
f 35/58/110 78/69/110 112/1/110
f 78/69/111 32/107/111 84/92/111
