# Blender 5.2.0 LTS
# www.blender.org
o granny_grnybody.smd.003
v -0.063223 0.010999 -0.049222
v -0.128958 0.008004 -0.059674
v -0.124062 0.034939 -0.056764
v -0.063966 0.035954 -0.046160
v -0.093606 0.028403 0.079993
v -0.083509 0.025980 0.073555
v -0.088053 0.025086 0.082921
v -0.113310 0.078680 -0.027223
v -0.115687 0.077658 -0.033794
v -0.084220 0.078851 -0.031145
v -0.087737 0.079651 -0.025056
v -0.078084 0.054302 0.004753
v -0.071309 0.048265 0.005287
v -0.079152 0.033867 0.039229
v -0.072765 0.027595 0.039418
v -0.090293 0.030849 0.071820
v -0.125849 0.027200 0.078172
v -0.132117 0.023442 0.080325
v -0.135100 0.024053 0.070728
v -0.126797 0.029486 0.069252
v -0.131228 0.034838 0.035623
v -0.122375 0.055657 0.003228
v -0.135876 0.023604 0.036398
v -0.080522 0.072213 -0.024274
v -0.065944 0.012005 -0.088940
v -0.077170 0.061804 -0.092286
v -0.093350 0.061754 -0.097675
v -0.110903 0.010308 -0.097678
v -0.117213 0.009696 -0.096508
v -0.110361 0.060524 -0.097589
v -0.112651 0.094869 -0.093672
v -0.108256 0.227216 -0.102120
v -0.115009 0.226962 -0.101131
v -0.080085 0.065323 -0.086786
v -0.070854 0.066085 -0.075311
v -0.078526 0.228208 -0.069464
v -0.089860 0.227862 -0.091425
v -0.093737 0.065996 -0.094049
v -0.108830 0.064623 -0.092436
v -0.111350 0.064085 -0.089825
v -0.115009 0.226962 -0.101131
v -0.129270 0.226426 -0.099043
v -0.112651 0.094869 -0.093672
v -0.111350 0.064085 -0.089825
v -0.122374 0.061731 -0.078400
v -0.150144 0.225558 -0.072067
v -0.124868 0.060010 -0.059918
v -0.154835 0.225284 -0.042699
v -0.121651 0.070009 -0.046576
v -0.147308 0.225513 -0.027941
v -0.115687 0.077658 -0.033794
v -0.139143 0.225738 -0.005100
v -0.084220 0.078851 -0.031145
v -0.097409 0.227278 -0.002295
v -0.071440 0.071978 -0.044683
v -0.080108 0.227991 -0.023081
v -0.065407 0.062342 -0.061464
v -0.071762 0.228384 -0.047673
v -0.065407 0.062342 -0.061464
v -0.070854 0.066085 -0.075311
v -0.065043 0.059627 -0.078965
v -0.061727 0.055878 -0.061544
v -0.071440 0.071978 -0.044683
v -0.087927 0.007232 0.082888
v -0.088053 0.025086 0.082921
v -0.083509 0.025980 0.073555
v -0.083023 0.007412 0.073344
v -0.069383 0.008018 0.043505
v -0.072765 0.027595 0.039418
v -0.071309 0.048265 0.005287
v -0.063117 0.010692 0.010470
v -0.065804 0.019418 -0.010789
v -0.080522 0.072213 -0.024274
v -0.075912 0.069867 -0.030415
v -0.087737 0.079651 -0.025056
v -0.084220 0.078851 -0.031145
v -0.066723 0.058874 -0.043375
v -0.063966 0.035954 -0.046160
v -0.063223 0.010999 -0.049222
v -0.061689 0.009829 -0.077955
v -0.065944 0.012005 -0.088940
v -0.077170 0.061804 -0.092286
v -0.064877 0.026744 -0.029001
v -0.122374 0.061731 -0.078400
v -0.110361 0.060524 -0.097589
v -0.108830 0.064623 -0.092436
v -0.125597 0.006822 -0.078669
v -0.117213 0.009696 -0.096508
v -0.125738 0.050785 -0.080226
v -0.129290 0.051724 -0.061737
v -0.124868 0.060010 -0.059918
v -0.121651 0.070009 -0.046576
v -0.127565 0.056603 -0.045367
v -0.124062 0.034939 -0.056764
v -0.120224 0.054461 -0.033595
v -0.121701 0.025799 -0.040624
v -0.128681 0.015477 -0.016685
v -0.120000 0.053980 -0.022041
v -0.113310 0.078680 -0.027223
v -0.129213 0.046084 0.005429
v -0.122375 0.055657 0.003228
v -0.131228 0.034838 0.035623
v -0.135876 0.023604 0.036398
v -0.138328 0.005366 0.039993
v -0.135356 0.011052 0.007516
v -0.115687 0.077658 -0.033794
v -0.128958 0.008004 -0.059674
v -0.135100 0.024053 0.070728
v -0.134406 0.005495 0.070732
v -0.131449 0.005608 0.080329
v -0.132117 0.023442 0.080325
v 0.069132 0.054495 -0.097776
v 0.073384 0.051507 -0.119844
v 0.076679 0.055931 -0.115937
v 0.065987 -0.000162 -0.092466
v 0.067347 0.001126 -0.112297
v 0.065327 0.043548 -0.097383
v 0.068709 0.045964 -0.078996
v 0.073495 0.054228 -0.079566
v 0.081333 0.065092 -0.069129
v 0.076247 0.051995 -0.064799
v 0.075369 0.029448 -0.074918
v 0.087349 0.050516 -0.056337
v 0.083405 0.021467 -0.060039
v 0.085555 0.013167 -0.034450
v 0.091740 0.050890 -0.045643
v 0.096120 0.074927 -0.054850
v 0.093089 0.045336 -0.016160
v 0.098674 0.054511 -0.021440
v 0.102132 0.036431 0.013524
v 0.098069 0.025430 0.016821
v 0.097071 0.007591 0.022505
v 0.088090 0.010754 -0.009199
v 0.091525 0.073489 -0.060016
v 0.069730 0.002529 -0.073698
v 0.111219 0.028408 0.048404
v 0.111853 0.009888 0.049644
v 0.118084 0.010627 0.057486
v 0.117474 0.028423 0.056295
v 0.102132 0.036431 0.013524
v 0.111219 0.028408 0.048404
v 0.098069 0.025430 0.016821
v 0.096120 0.074927 -0.054850
v 0.091525 0.073489 -0.060016
v 0.121818 0.073940 -0.069002
v 0.120744 0.075295 -0.062139
v 0.140513 0.051957 -0.035892
v 0.147017 0.045778 -0.037357
v 0.151980 0.034183 -0.001835
v 0.157997 0.027756 -0.003461
v 0.160338 0.029004 0.032265
v 0.153389 0.033931 0.032711
v 0.153258 0.032199 0.041696
v 0.122541 0.031822 0.051732
v 0.159491 0.028945 0.042679
v 0.117474 0.028423 0.056295
v 0.118430 0.033466 0.043602
v 0.098674 0.054511 -0.021440
v 0.127748 0.067724 -0.063420
v 0.090166 0.056730 -0.122991
v 0.072695 0.086101 -0.118129
v 0.076679 0.055931 -0.115937
v 0.075276 0.055664 -0.112559
v 0.128367 0.054669 -0.102640
v 0.128826 0.065702 -0.085641
v 0.128689 0.223078 -0.074938
v 0.127568 0.221393 -0.100831
v 0.118280 0.057532 -0.113841
v 0.113374 0.219798 -0.118625
v 0.105521 0.056193 -0.121113
v 0.094860 0.218157 -0.134916
v 0.073840 0.217264 -0.138165
v 0.067902 0.217285 -0.134790
v 0.127561 0.231504 -0.101982
v 0.112521 0.236345 -0.121054
v 0.093769 0.234161 -0.133660
v 0.071436 0.235138 -0.137345
v 0.055364 0.217330 -0.127662
v 0.069132 0.054495 -0.097776
v 0.075276 0.055664 -0.112559
v 0.072695 0.086101 -0.118129
v 0.067902 0.217285 -0.134790
v 0.067377 0.234872 -0.134968
v 0.052137 0.233873 -0.126044
v 0.041850 0.231519 -0.095974
v 0.045669 0.219093 -0.094995
v 0.048829 0.231063 -0.065393
v 0.051926 0.221143 -0.065992
v 0.073495 0.054228 -0.079566
v 0.081333 0.065092 -0.069129
v 0.064285 0.222245 -0.055013
v 0.091525 0.073489 -0.060016
v 0.080165 0.223925 -0.036752
v 0.121818 0.073940 -0.069002
v 0.120086 0.224427 -0.049325
v 0.134794 0.004336 -0.087939
v 0.069730 0.002529 -0.073698
v 0.075369 0.029448 -0.074918
v 0.135229 0.029461 -0.086825
v 0.135229 0.029461 -0.086825
v 0.075369 0.029448 -0.074918
v 0.083405 0.021467 -0.060039
v 0.146306 0.015664 -0.051970
v 0.088090 0.010754 -0.009199
v 0.156499 0.008467 -0.032487
v 0.162614 0.008445 0.000685
v 0.097071 0.007591 0.022505
v 0.159582 0.011142 0.044032
v 0.118084 0.010627 0.057486
v 0.072806 0.001462 -0.115710
v 0.125821 0.000988 -0.115099
v 0.117881 0.002467 -0.123945
v 0.067347 0.001126 -0.112297
v 0.065987 -0.000162 -0.092466
v 0.134794 0.004336 -0.087939
v 0.069730 0.002529 -0.073698
v 0.118084 0.010627 0.057486
v 0.117474 0.028423 0.056295
v 0.159491 0.028945 0.042679
v 0.159582 0.011142 0.044032
v -0.131449 0.005608 0.080329
v -0.132117 0.023442 0.080325
v -0.088053 0.025086 0.082921
v -0.087927 0.007232 0.082888
v 0.076679 0.055931 -0.115937
v 0.073384 0.051507 -0.119844
v 0.089212 0.052220 -0.126160
v 0.090166 0.056730 -0.122991
v 0.105521 0.056193 -0.121113
v 0.106245 0.052190 -0.126993
v 0.122370 0.050650 -0.118815
v 0.118280 0.057532 -0.113841
v 0.146306 0.015664 -0.051970
v 0.129819 0.064792 -0.070601
v 0.140583 0.021584 -0.069814
v 0.135229 0.029461 -0.086825
v 0.133685 0.052597 -0.085079
v 0.159582 0.011142 0.044032
v 0.159491 0.028945 0.042679
v 0.160338 0.029004 0.032265
v 0.160699 0.010466 0.033381
v 0.162614 0.008445 0.000685
v 0.157997 0.027756 -0.003461
v 0.147017 0.045778 -0.037357
v 0.156499 0.008467 -0.032487
v 0.127748 0.067724 -0.063420
v 0.120744 0.075295 -0.062139
v 0.121818 0.073940 -0.069002
v 0.128826 0.065702 -0.085641
v 0.131764 0.048111 -0.103524
v 0.134794 0.004336 -0.087939
v 0.122370 0.050650 -0.118815
v 0.125821 0.000988 -0.115099
v 0.117881 0.002467 -0.123945
v 0.106245 0.052190 -0.126993
v 0.128367 0.054669 -0.102640
v 0.118280 0.057532 -0.113841
v -0.110903 0.010308 -0.097678
v -0.061689 0.009829 -0.077955
v -0.065944 0.012005 -0.088940
v -0.117213 0.009696 -0.096508
v -0.125597 0.006822 -0.078669
v -0.063223 0.010999 -0.049222
v -0.128958 0.008004 -0.059674
v 0.117881 0.002467 -0.123945
v 0.106245 0.052190 -0.126993
v 0.089212 0.052220 -0.126160
v 0.072806 0.001462 -0.115710
v 0.067347 0.001126 -0.112297
v 0.073384 0.051507 -0.119844
v -0.063966 0.035954 -0.046160
v -0.124062 0.034939 -0.056764
v -0.121701 0.025799 -0.040624
v -0.065804 0.019418 -0.010789
v -0.135356 0.011052 0.007516
v -0.063117 0.010692 0.010470
v -0.069383 0.008018 0.043505
v -0.138328 0.005366 0.039993
v -0.087927 0.007232 0.082888
v -0.131449 0.005608 0.080329
v -0.108830 0.064623 -0.092436
v -0.110361 0.060524 -0.097589
v -0.093350 0.061754 -0.097675
v -0.093737 0.065996 -0.094049
v -0.080085 0.065323 -0.086786
v -0.077170 0.061804 -0.092286
v -0.065043 0.059627 -0.078965
v -0.070854 0.066085 -0.075311
vn 0.8103 0.4075 -0.4211
vn 0.8425 0.4012 -0.3595
vn 0.5545 0.5195 -0.6501
vn 0.4713 0.5073 -0.7215
vn 0.1391 0.3660 -0.9202
vn 0.1860 0.3430 -0.9207
vn -0.4348 0.4155 -0.7989
vn -0.4022 0.3999 -0.8236
vn -0.4849 -0.5902 0.6454
vn -0.7384 -0.6704 -0.0726
vn 0.4156 -0.5854 0.6961
vn 0.7723 -0.6121 0.1696
vn -0.7476 -0.6065 -0.2706
vn 0.7822 -0.6148 -0.1012
vn 0.7832 -0.5555 -0.2794
vn -0.6215 -0.6875 -0.3756
vn 0.9096 -0.2223 0.3509
vn -0.7208 -0.2738 0.6367
vn -0.6728 0.3493 -0.6522
vn -0.2031 0.2921 -0.9346
vn -0.7023 -0.5806 -0.4119
vn -0.2854 -0.6491 -0.7052
vn 0.2798 -0.5693 -0.7731
vn 0.1786 0.4380 -0.8811
vn -0.6576 -0.5897 0.4689
vn -0.6636 -0.7033 -0.2548
vn 0.5493 -0.5712 0.6099
vn 0.7522 -0.6429 -0.1446
vn -0.4888 -0.5462 -0.6802
vn 0.0076 -0.5907 -0.8069
vn 0.5567 -0.5052 -0.6595
vn 0.9130 0.1629 -0.3741
vn 0.8535 0.3346 -0.3995
vn 0.9775 0.2106 0.0103
vn 0.6556 0.3480 -0.6701
vn 0.6033 0.3508 -0.7162
vn 0.2797 -0.5692 -0.7731
vn 0.6482 -0.6741 -0.3542
vn 0.7324 -0.5404 0.4143
vn 0.9748 -0.2226 0.0156
vn 0.9836 0.1803 0.0030
vn 0.8880 0.4598 0.0071
vn 0.7934 0.4833 0.3700
vn 0.3223 0.9376 0.1305
vn 0.8101 0.5853 -0.0352
vn 0.6283 -0.5980 -0.4976
vn 0.8707 0.4646 -0.1610
vn 0.6919 -0.6437 -0.3270
vn 0.7808 -0.6207 -0.0719
vn 0.9055 0.4142 -0.0916
vn 0.8741 0.4832 0.0500
vn 0.9965 0.0242 0.0798
vn 0.6388 -0.5442 0.5438
vn 0.7185 0.4617 0.5201
vn 0.9487 0.2324 -0.2142
vn 0.6033 0.3508 -0.7163
vn 0.6555 0.3481 -0.6702
vn 0.2820 0.4530 -0.8457
vn 0.1785 0.4380 -0.8811
vn -0.2031 0.2922 -0.9345
vn -0.1596 0.2679 -0.9501
vn -0.5139 0.7370 -0.4391
vn 0.4156 -0.5855 0.6961
vn 0.4685 0.4192 0.7777
vn -0.4849 -0.5903 0.6454
vn -0.5911 0.3972 0.7021
vn 0.6389 -0.5442 0.5437
vn 0.7186 0.4617 0.5200
vn -0.2188 -0.5259 0.8219
vn -0.2965 0.4657 0.8338
vn -0.4437 -0.5334 0.7201
vn -0.7115 -0.7003 0.0590
vn 0.7324 -0.5403 0.4143
vn 0.6484 -0.6739 -0.3542
vn -0.7023 -0.5805 -0.4120
vn -0.2854 -0.6490 -0.7052
vn 0.2798 -0.5691 -0.7732
vn -0.2189 -0.5258 0.8219
vn -0.7152 -0.6517 0.2525
vn 0.6389 -0.5441 0.5438
vn 0.7809 -0.6206 -0.0719
vn -0.7953 -0.6025 0.0668
vn 0.6920 -0.6436 -0.3270
vn 0.6284 -0.5978 -0.4976
vn -0.7159 -0.6948 -0.0698
vn 0.9748 -0.2226 0.0157
vn -0.4417 -0.2041 0.8736
vn -0.4418 -0.2041 0.8736
vn -0.9746 -0.2231 -0.0189
vn -0.9886 0.1375 -0.0621
vn -0.9253 0.2710 0.2654
vn -0.7596 -0.1195 -0.6393
vn 0.9878 -0.0091 0.1553
vn 0.6708 -0.0838 0.7369
vn 0.9776 0.2104 0.0104
vn -0.2551 -0.1648 0.9528
vn -0.2445 -0.1481 0.9583
vn -0.6934 -0.1475 0.7053
vn -0.7396 0.1037 0.6650
vn -0.8852 -0.2061 0.4171
vn -0.9302 -0.2948 0.2185
vn -0.9605 -0.2732 -0.0519
vn -0.7835 -0.0927 -0.6144
vn -0.4999 -0.0184 -0.8659
vn -0.4923 -0.0933 -0.8654
vn -0.7268 -0.1469 -0.6709
vn -0.9090 -0.1483 -0.3895
vn -0.0682 -0.0473 -0.9965
vn 0.1565 0.0750 -0.9848
vn 0.4187 0.0206 -0.9079
vn 0.4063 0.0614 -0.9117
vn 0.7119 -0.0205 -0.7020
vn 0.6648 -0.0771 -0.7431
vn 0.8969 -0.0181 -0.4419
vn 0.7744 -0.0711 -0.6287
vn -0.7267 -0.1469 -0.6711
vn -0.1596 0.2677 -0.9502
vn 0.2821 0.4530 -0.8457
vn 0.6033 0.3507 -0.7163
vn 0.8535 0.3344 -0.3995
vn -0.7278 -0.1448 -0.6704
vn -0.9090 -0.1483 -0.3894
vn 0.8707 0.4648 -0.1609
vn 0.8100 0.5853 -0.0352
vn 0.3222 0.9376 0.1306
vn 0.3231 0.9422 0.0886
vn -0.1815 0.9552 0.2338
vn -0.0034 0.8742 0.4856
vn 0.7186 0.4616 0.5201
vn 0.2740 0.8729 0.4036
vn -0.2451 0.8336 0.4951
vn 0.4933 0.8198 0.2910
vn -0.3669 0.8725 0.3227
vn -0.4844 0.7960 0.3629
vn 0.4891 0.8633 0.1245
vn -0.7285 0.4856 0.4831
vn -0.2965 0.4656 0.8339
vn 0.9055 0.4144 -0.0916
vn 0.7934 0.4833 0.3701
vn -0.6888 0.5571 0.4639
vn -0.9191 0.2515 0.3033
vn -0.2964 0.4657 0.8338
vn -0.7286 0.4856 0.4831
vn -0.2187 -0.5259 0.8220
vn -0.8340 0.0084 0.5518
vn -0.7150 -0.6519 0.2526
vn -0.9191 0.2514 0.3033
vn -0.9240 0.1710 0.3420
vn -0.9889 0.1233 -0.0826
vn -0.7113 -0.7004 0.0590
vn -0.4436 -0.5334 0.7202
vn -0.4418 -0.2040 0.8736
vn -0.7621 0.1401 0.6321
vn -0.8362 0.1813 0.5175
vn -0.7397 0.1039 0.6649
vn -0.6888 0.5570 0.4640
vn -0.3668 0.8725 0.3227
vn -0.8730 0.4034 0.2742
vn -0.7952 -0.6026 0.0668
vn -0.9774 0.1670 0.1293
vn -0.9460 0.2387 0.2193
vn -0.4845 0.7960 0.3629
vn -0.7158 -0.6948 -0.0698
vn -0.9252 0.2711 0.2654
vn -0.9885 0.1377 -0.0621
vn -0.7022 -0.5806 -0.4120
vn -0.5140 0.7370 -0.4389
vn -0.5909 0.3972 0.7022
vn -0.8679 0.4448 0.2213
vn -0.4848 -0.5902 0.6455
vn -0.9767 -0.0365 0.2114
vn -0.7383 -0.6706 -0.0726
vn -0.9737 0.2256 -0.0321
vn -0.9898 0.1424 -0.0040
vn -0.8957 0.1287 -0.4256
vn -0.6635 -0.7034 -0.2548
vn -0.6575 -0.5898 0.4690
vn -0.7209 -0.2736 0.6367
vn -0.9426 0.0884 0.3219
vn -0.9716 0.1386 0.1917
vn -0.9325 0.0498 0.3578
vn -0.7918 0.1512 0.5918
vn -0.4843 0.8436 0.2319
vn -0.9247 0.3794 -0.0312
vn -0.7475 -0.6066 -0.2706
vn -0.9628 0.1553 -0.2212
vn -0.9681 0.2196 -0.1209
vn -0.6062 0.7640 0.2211
vn -0.4319 0.7910 0.4333
vn -0.6214 -0.6876 -0.3756
vn -0.9663 0.2483 -0.0682
vn -0.9032 0.1414 -0.4053
vn -0.4887 -0.5463 -0.6803
vn -0.4349 0.4155 -0.7989
vn 0.9105 0.1803 0.3722
vn 0.8115 0.4585 0.3622
vn 0.9097 -0.2223 0.3508
vn 0.9548 0.2496 0.1616
vn 0.7831 -0.5556 -0.2794
vn 0.8425 0.4011 -0.3595
vn 0.5566 -0.5053 -0.6594
vn 0.7521 -0.6430 -0.1446
vn 0.5493 -0.5713 0.6099
vn 0.9812 0.1930 -0.0050
vn 0.9012 0.2098 0.3791
vn 0.5918 0.4528 0.6669
vn 0.2255 0.9244 0.3077
vn 0.7504 0.5869 0.3040
vn 0.8559 0.4768 0.2002
vn 0.7821 -0.6148 -0.1013
vn 0.7722 -0.6123 0.1696
vn 0.8649 0.4209 0.2734
vn 0.7824 0.4783 0.3988
vn 0.8994 0.0186 0.4367
vn 0.4154 -0.5855 0.6962
vn 0.4684 0.4191 0.7778
vn 0.9298 0.3662 -0.0374
vn 0.8103 0.4076 -0.4211
vn 0.9224 0.0490 -0.3830
vn 0.9991 0.0335 0.0272
vn 0.8103 0.4074 -0.4211
vn 0.9298 0.3661 -0.0374
vn 0.8651 -0.0207 0.5012
vn 0.9013 0.2097 0.3792
vn 0.3620 -0.1421 0.9213
vn -0.5766 -0.2408 0.7807
vn -0.7917 0.1512 0.5919
vn -0.8964 -0.2041 0.3934
vn -0.9324 0.0496 0.3579
vn -0.9680 -0.1890 0.1654
vn -0.9663 0.2482 -0.0681
vn -0.9128 -0.1405 -0.3834
vn -0.9032 0.1413 -0.4053
vn -0.5067 -0.0915 -0.8572
vn -0.7024 -0.1174 -0.7020
vn -0.4311 -0.0933 -0.8975
vn -0.1425 -0.0583 -0.9881
vn -0.4309 -0.0933 -0.8976
vn 0.1860 0.3429 -0.9208
vn 0.1791 -0.0311 -0.9833
vn 0.7186 0.0216 -0.6951
vn -0.1424 -0.0583 -0.9881
vn -0.4023 0.3999 -0.8235
vn 0.1391 0.3658 -0.9202
vn -0.4888 -0.5463 -0.6802
vn 0.0077 -0.5908 -0.8068
vn 0.5567 -0.5053 -0.6594
vn 0.8559 0.4769 0.2003
vn 0.7504 0.5869 0.3041
vn 0.2253 0.9244 0.3077
vn -0.6061 0.7640 0.2211
vn 0.2413 0.9323 0.2693
vn -0.2819 0.9333 0.2226
vn -0.2043 0.8325 0.5150
vn 0.3305 0.7942 0.5099
vn -0.4844 0.8435 0.2319
vn 0.3854 0.8509 0.3569
vn -0.5910 0.3972 0.7021
vn 0.0839 0.8380 0.5392
vn 0.7824 0.4784 0.3988
vn 0.8648 0.4211 0.2734
vn 0.5917 0.4528 0.6670
vn -0.7917 0.1510 0.5919
vn 0.9097 -0.2224 0.3508
vn -0.7209 -0.2737 0.6367
vn -0.6575 -0.5897 0.4689
vt 0.683857 -0.979374
vt 0.667711 -0.984829
vt 0.723687 -0.989990
vt 0.718347 -0.996847
vt 0.777069 -0.998918
vt 0.775166 -0.994801
vt 0.825177 -0.989252
vt 0.834686 -0.994613
vt 0.695920 -0.788679
vt 0.642676 -0.832330
vt 0.845199 -0.796547
vt 0.878766 -0.845402
vt 0.629310 -0.869647
vt 0.875754 -0.884121
vt 0.851956 -0.907472
vt 0.641556 -0.927325
vt 0.833940 -0.947906
vt 0.622711 -0.945009
vt 0.641876 -0.944934
vt 0.699493 -0.946677
vt 0.613258 -0.797649
vt 0.633803 -0.798737
vt 0.792540 -0.798907
vt 0.758215 -0.945128
vt 0.600680 -0.946723
vt 0.597797 -0.968891
vt 0.831111 -0.951208
vt 0.814816 -0.983874
vt 0.613258 -0.991050
vt 0.633803 -0.993929
vt 0.792540 -0.995204
vt 0.641773 -0.926505
vt 0.642992 -0.945729
vt 0.670026 -0.974614
vt 0.616626 -0.937607
vt 0.623917 -0.957080
vt 0.600566 -0.945128
vt 0.602761 -0.798907
vt 0.617902 -0.792219
vt 0.661559 -0.796076
vt 0.665971 -0.868869
vt 0.670664 -0.935952
vt 0.692972 -0.969091
vt 0.694455 -0.996149
vt 0.704749 -0.998918
vt 0.703677 -0.976481
vt 0.720008 -0.821261
vt 0.745473 -0.906033
vt 0.751215 -0.795765
vt 0.802960 -0.788983
vt 0.797593 -0.846328
vt 0.852449 -0.843125
vt 0.852295 -0.788990
vt 0.868252 -0.789092
vt 0.868033 -0.841107
vt 0.692212 -0.842315
vt 0.631363 -0.789092
vt 0.629567 -0.841107
vt 0.780643 -0.789040
vt 0.780713 -0.841054
vt 0.642622 -0.868869
vt 0.853851 -0.872306
vt 0.645451 -0.796076
vt 0.875882 -0.794359
vt 0.506708 -0.677656
vt 0.572960 -0.484031
vt 0.548144 -0.482192
vt 0.573094 -0.677656
vt 0.176567 -0.677656
vt 0.226121 -0.677656
vt 0.135165 -0.493979
vt 0.171163 -0.502662
vt 0.303253 -0.677656
vt 0.243453 -0.502621
vt 0.349815 -0.677656
vt 0.288508 -0.493848
vt 0.406915 -0.677656
vt 0.408239 -0.689358
vt 0.503266 -0.692441
vt 0.566783 -0.697050
vt 0.595703 -0.698304
vt 0.595703 -0.677656
vt 0.595703 -0.522461
vt 0.595703 -0.486269
vt 0.011683 -0.677656
vt 0.008680 -0.698638
vt 0.045032 -0.677656
vt 0.045384 -0.696364
vt 0.086553 -0.677656
vt 0.084442 -0.697266
vt 0.128055 -0.677656
vt 0.127415 -0.689594
vt 0.000977 -0.677656
vt 0.000977 -0.522461
vt 0.029997 -0.487727
vt 0.055170 -0.486371
vt 0.079558 -0.486909
vt 0.104808 -0.482332
vt 0.006175 -0.486780
vt 0.000977 -0.486269
vt 0.627738 -0.888418
vt 0.677899 -0.919692
vt 0.701966 -0.918890
vt 0.644678 -0.808713
vt 0.770200 -0.802589
vt 0.760652 -0.792764
vt 0.629567 -0.796710
vt 0.621044 -0.808371
vt 0.650112 -0.798676
vt 0.801052 -0.878246
vt 0.650304 -0.887426
vt 0.790177 -0.915014
vt 0.809495 -0.839374
vt 0.630828 -0.848139
vt 0.797852 -0.798813
vt 0.780713 -0.788750
vt 0.609863 -0.849418
vt 0.694692 -0.926592
vt 0.803218 -0.921802
vt 0.826021 -0.837211
vt 0.597892 -0.841054
vt 0.611340 -0.843063
vt 0.597797 -0.789040
vt 0.611241 -0.788934
vt 0.656132 -0.788679
vt 0.662656 -0.841497
vt 0.812760 -0.921706
vt 0.841693 -0.918404
vt 0.838637 -0.790363
vt 0.809011 -0.794359
vt 0.806719 -0.872306
vt 0.788817 -0.935895
vt 0.773510 -0.928978
vt 0.792813 -0.974288
vt 0.775705 -0.996047
vt 0.766633 -0.998834
vt 0.711770 -0.905940
vt 0.706004 -0.804594
vt 0.744642 -0.816519
vt 0.756216 -0.927670
vt 0.665546 -0.873704
vt 0.717497 -0.933061
vt 0.783087 -0.845590
vt 0.811628 -0.945380
vt 0.840247 -0.949941
vt 0.873013 -0.944934
vt 0.868251 -0.797649
vt 0.865847 -0.956760
s 1
f 288/1/1 287/2/2 285/3/3
f 287/2/2 286/4/4 285/3/3
f 286/4/4 283/5/5 285/3/3
f 283/5/5 284/6/6 285/3/3
f 284/6/6 283/5/5 281/7/7
f 283/5/5 282/8/8 281/7/7
f 280/9/9 278/10/10 279/11/11
f 278/10/10 277/12/12 279/11/11
f 278/10/10 275/13/13 277/12/12
f 275/13/13 276/14/14 277/12/12
f 274/15/15 276/14/14 275/13/13
f 273/16/16 274/15/15 275/13/13
f 274/15/15 273/16/16 271/17/17
f 273/16/16 272/18/18 271/17/17
f 270/19/19 267/20/20 269/21/21
f 267/20/20 268/22/22 269/21/21
f 268/22/22 267/20/20 265/23/23
f 267/20/20 266/24/24 265/23/23
f 264/25/25 262/26/26 263/27/27
f 262/26/26 259/28/28 263/27/27
f 262/26/26 261/29/29 259/28/28
f 258/30/30 259/28/28 261/29/29
f 260/31/31 259/28/28 258/30/30
f 250/32/32 256/33/33 249/34/34
f 250/32/32 252/35/35 256/33/33
f 252/35/35 257/36/36 256/33/33
f 255/37/24 252/35/35 254/38/37
f 252/35/35 253/39/38 254/38/37
f 253/39/38 252/35/35 251/40/39
f 252/35/35 250/32/32 251/40/39
f 251/40/39 250/32/32 236/41/40
f 250/32/32 237/42/41 236/41/40
f 237/42/41 250/32/32 249/34/34
f 234/43/42 237/42/41 249/34/34
f 248/44/43 234/43/42 249/34/34
f 234/43/42 248/44/43 247/45/44
f 246/46/45 234/43/42 247/45/44
f 234/43/42 246/46/45 233/47/46
f 246/46/45 244/48/47 233/47/46
f 244/48/47 245/49/48 233/47/46
f 245/49/48 244/48/47 242/50/49
f 244/48/47 243/51/50 242/50/49
f 243/51/50 240/52/51 242/50/49
f 240/52/51 241/53/52 242/50/49
f 241/53/52 240/52/51 238/54/53
f 240/52/51 239/55/54 238/54/53
f 237/42/41 234/43/42 236/41/40
f 234/43/42 235/56/55 236/41/40
f 235/56/55 234/43/42 233/47/46
f 232/1/56 231/2/57 229/3/58
f 231/2/57 230/4/59 229/3/58
f 230/4/59 227/5/60 229/3/58
f 227/5/60 228/6/61 229/3/58
f 228/6/61 227/5/60 225/7/62
f 227/5/60 226/8/19 225/7/62
f 224/57/63 223/58/64 221/59/65
f 223/58/64 222/60/66 221/59/65
f 220/57/67 219/58/68 217/59/69
f 219/58/68 218/60/70 217/59/69
f 216/25/71 214/26/72 215/27/73
f 214/26/72 211/28/74 215/27/73
f 214/26/72 213/29/75 211/28/74
f 210/30/76 211/28/74 213/29/75
f 212/31/77 211/28/74 210/30/76
f 209/9/78 207/10/79 208/11/80
f 207/10/79 206/12/81 208/11/80
f 207/10/79 204/13/82 206/12/81
f 204/13/82 205/14/83 206/12/81
f 203/15/84 205/14/83 204/13/82
f 202/16/85 203/15/84 204/13/82
f 203/15/84 202/16/85 200/17/86
f 202/16/85 201/18/87 200/17/86
f 199/61/86 198/62/88 196/63/39
f 198/62/88 197/64/71 196/63/39
f 186/65/89 179/66/90 189/67/91
f 186/65/89 178/68/92 179/66/90
f 166/69/93 195/70/94 165/71/95
f 195/70/94 194/72/43 165/71/95
f 195/70/94 193/73/96 194/72/43
f 193/73/96 192/74/97 194/72/43
f 193/73/96 191/75/98 192/74/97
f 191/75/98 190/76/99 192/74/97
f 191/75/98 188/77/100 190/76/99
f 188/77/100 189/67/91 190/76/99
f 188/77/100 186/65/89 189/67/91
f 188/77/100 187/78/101 186/65/89
f 187/78/101 185/79/102 186/65/89
f 186/65/89 185/79/102 178/68/92
f 185/79/102 184/80/103 178/68/92
f 178/68/92 184/80/103 183/81/104
f 182/82/105 178/68/92 183/81/104
f 181/83/106 178/68/92 182/82/105
f 181/83/106 180/84/107 178/68/92
f 180/84/107 179/66/90 178/68/92
f 172/85/108 177/86/109 171/87/110
f 177/86/109 176/88/111 171/87/110
f 171/87/110 176/88/111 169/89/112
f 176/88/111 175/90/113 169/89/112
f 169/89/112 175/90/113 167/91/114
f 175/90/113 174/92/115 167/91/114
f 173/93/105 172/85/108 161/94/116
f 172/85/108 160/95/117 161/94/116
f 172/85/108 171/87/110 160/95/117
f 171/87/110 170/96/118 160/95/117
f 171/87/110 169/89/112 170/96/118
f 169/89/112 168/97/119 170/96/118
f 169/89/112 167/91/114 168/97/119
f 167/91/114 164/98/120 168/97/119
f 167/91/114 166/69/93 164/98/120
f 166/69/93 165/71/95 164/98/120
f 161/94/116 162/99/121 163/100/122
f 162/99/121 161/94/116 160/95/117
f 148/101/123 159/102/124 146/103/125
f 152/104/126 157/105/127 154/106/128
f 155/107/129 151/108/51 153/109/130
f 158/110/131 147/111/132 143/112/133
f 147/111/132 158/110/131 140/113/134
f 149/114/135 147/111/132 140/113/134
f 152/104/126 149/114/135 140/113/134
f 157/105/127 152/104/126 140/113/134
f 141/115/136 157/105/127 140/113/134
f 157/105/127 141/115/136 154/106/128
f 141/115/136 156/116/137 154/106/128
f 156/116/137 155/107/129 154/106/128
f 155/107/129 153/109/130 154/106/128
f 153/109/130 152/104/126 154/106/128
f 151/108/51 152/104/126 153/109/130
f 152/104/126 151/108/51 149/114/135
f 151/108/51 150/117/138 149/114/135
f 150/117/138 148/101/123 149/114/135
f 148/101/123 147/111/132 149/114/135
f 147/111/132 148/101/123 146/103/125
f 147/111/132 146/103/125 143/112/133
f 146/103/125 145/118/139 143/112/133
f 145/118/139 144/119/140 143/112/133
f 142/120/141 141/115/136 140/113/134
f 139/121/142 136/122/143 138/123/144
f 136/122/143 137/124/145 138/123/144
f 137/124/145 136/122/143 132/125/146
f 136/122/143 131/126/147 132/125/146
f 118/127/148 117/128/149 115/129/150
f 135/130/151 118/127/148 115/129/150
f 118/127/148 135/130/151 122/131/152
f 121/132/153 123/133/154 120/134/155
f 123/133/154 134/135/156 120/134/155
f 134/135/156 123/133/154 127/136/157
f 128/137/158 133/138/159 132/125/146
f 133/138/159 128/137/158 125/139/160
f 128/137/158 126/140/161 125/139/160
f 131/126/147 128/137/158 132/125/146
f 128/137/158 131/126/147 130/141/162
f 129/142/131 128/137/158 130/141/162
f 128/137/158 129/142/131 127/136/157
f 126/140/161 128/137/158 127/136/157
f 123/133/154 126/140/161 127/136/157
f 126/140/161 123/133/154 125/139/160
f 123/133/154 124/143/163 125/139/160
f 124/143/163 123/133/154 122/131/152
f 123/133/154 121/132/153 122/131/152
f 121/132/153 118/127/148 122/131/152
f 118/127/148 121/132/153 120/134/155
f 119/144/164 118/127/148 120/134/155
f 118/127/148 119/144/164 112/145/165
f 117/128/149 118/127/148 112/145/165
f 113/146/19 117/128/149 112/145/165
f 117/128/149 113/146/19 115/129/150
f 113/146/19 116/147/166 115/129/150
f 114/148/167 113/146/19 112/145/165
f 111/121/168 108/122/169 110/123/170
f 108/122/169 109/124/171 110/123/170
f 109/124/171 108/122/169 104/125/172
f 108/122/169 103/126/173 104/125/172
f 90/127/174 89/128/175 87/129/176
f 107/130/177 90/127/174 87/129/176
f 90/127/174 107/130/177 94/131/178
f 93/132/179 95/133/180 92/134/181
f 95/133/180 106/135/182 92/134/181
f 106/135/182 95/133/180 99/136/183
f 100/137/184 105/138/185 104/125/172
f 105/138/185 100/137/184 97/139/186
f 100/137/184 98/140/187 97/139/186
f 103/126/173 100/137/184 104/125/172
f 100/137/184 103/126/173 102/141/188
f 101/142/189 100/137/184 102/141/188
f 100/137/184 101/142/189 99/136/183
f 98/140/187 100/137/184 99/136/183
f 95/133/180 98/140/187 99/136/183
f 98/140/187 95/133/180 97/139/186
f 95/133/180 96/143/190 97/139/186
f 96/143/190 95/133/180 94/131/178
f 95/133/180 93/132/179 94/131/178
f 93/132/179 90/127/174 94/131/178
f 90/127/174 93/132/179 92/134/181
f 91/144/191 90/127/174 92/134/181
f 90/127/174 91/144/191 84/145/192
f 89/128/175 90/127/174 84/145/192
f 85/146/8 89/128/175 84/145/192
f 89/128/175 85/146/8 87/129/176
f 85/146/8 88/147/193 87/129/176
f 86/148/194 85/146/8 84/145/192
f 77/42/195 74/43/196 78/41/197
f 74/43/196 83/56/198 78/41/197
f 83/56/198 74/43/196 72/47/199
f 82/37/4 61/35/200 81/38/201
f 61/35/200 80/39/202 81/38/201
f 80/39/202 61/35/200 79/40/203
f 61/35/200 62/32/204 79/40/203
f 79/40/203 62/32/204 78/41/197
f 62/32/204 77/42/195 78/41/197
f 77/42/195 62/32/204 63/34/205
f 74/43/196 77/42/195 63/34/205
f 76/44/206 74/43/196 63/34/205
f 74/43/196 76/44/206 75/45/207
f 73/46/208 74/43/196 75/45/207
f 74/43/196 73/46/208 72/47/199
f 73/46/208 70/48/209 72/47/199
f 70/48/209 71/49/210 72/47/199
f 71/49/210 70/48/209 68/50/211
f 70/48/209 69/51/212 68/50/211
f 69/51/212 66/52/213 68/50/211
f 66/52/213 67/53/214 68/50/211
f 67/53/214 66/52/213 64/54/215
f 66/52/213 65/55/216 64/54/215
f 62/32/204 59/33/217 63/34/205
f 62/32/204 61/35/200 59/33/217
f 61/35/200 60/36/218 59/33/217
f 36/89/219 58/91/220 35/97/221
f 58/91/220 57/98/222 35/97/221
f 58/91/220 56/69/223 57/98/222
f 56/69/223 55/71/224 57/98/222
f 56/69/223 54/70/225 55/71/224
f 54/70/225 53/72/206 55/71/224
f 54/70/225 52/73/226 53/72/206
f 52/73/226 51/74/227 53/72/206
f 52/73/226 50/75/228 51/74/227
f 50/75/228 49/76/229 51/74/227
f 50/75/228 48/77/230 49/76/229
f 48/77/230 47/67/231 49/76/229
f 48/77/230 46/65/232 47/67/231
f 46/65/232 45/66/233 47/67/231
f 46/65/232 42/68/234 45/66/233
f 44/84/235 45/66/233 42/68/234
f 43/83/236 44/84/235 42/68/234
f 43/83/236 42/68/234 41/82/237
f 31/94/238 39/99/7 40/100/235
f 39/99/7 31/94/238 38/95/239
f 32/85/240 38/95/239 31/94/238
f 32/85/240 37/87/241 38/95/239
f 37/87/241 34/96/3 38/95/239
f 37/87/241 36/89/219 34/96/3
f 36/89/219 35/97/221 34/96/3
f 33/93/242 32/85/240 31/94/238
f 30/19/243 27/20/244 29/21/245
f 27/20/244 28/22/246 29/21/245
f 28/22/246 27/20/244 25/23/247
f 27/20/244 26/24/4 25/23/247
f 13/101/248 24/102/249 11/103/250
f 23/120/173 19/115/169 21/113/251
f 16/104/252 20/105/253 17/106/254
f 22/110/189 12/111/255 8/112/256
f 12/111/255 22/110/189 21/113/251
f 14/114/257 12/111/255 21/113/251
f 16/104/252 14/114/257 21/113/251
f 20/105/253 16/104/252 21/113/251
f 19/115/169 20/105/253 21/113/251
f 20/105/253 19/115/169 17/106/254
f 19/115/169 18/116/258 17/106/254
f 18/116/258 7/107/216 17/106/254
f 7/107/216 5/109/259 17/106/254
f 5/109/259 16/104/252 17/106/254
f 6/108/260 16/104/252 5/109/259
f 16/104/252 6/108/260 14/114/257
f 6/108/260 15/117/261 14/114/257
f 15/117/261 13/101/248 14/114/257
f 13/101/248 12/111/255 14/114/257
f 12/111/255 13/101/248 11/103/250
f 12/111/255 11/103/250 8/112/256
f 11/103/250 10/118/262 8/112/256
f 10/118/262 9/119/263 8/112/256
f 7/107/216 6/108/260 5/109/259
f 4/61/264 3/62/265 1/63/27
f 3/62/265 2/64/266 1/63/27
