# Blender 5.2.0 LTS
# www.blender.org
o granny_grnyeyes.smd
v -0.046643 1.246459 0.086521
v -0.046619 1.246738 0.086689
v -0.046517 1.247920 0.087398
v -0.005827 1.260510 0.082451
v -0.005009 1.256862 0.081866
v -0.002441 1.258766 0.079156
v -0.003508 1.263533 0.079920
v -0.004551 1.254464 0.088561
v -0.004992 1.253299 0.085336
v -0.005751 1.255352 0.085169
v -0.006193 1.257326 0.085485
v -0.005584 1.256264 0.086627
v -0.006240 1.258618 0.086094
v -0.006252 1.258923 0.086238
v -0.003607 1.253070 0.082175
v -0.000609 1.253812 0.079559
v 0.001708 1.249426 0.081070
v -0.001834 1.249714 0.083331
v -0.004032 1.251483 0.085961
v -0.003018 1.250178 0.086950
v -0.003587 1.251769 0.087548
v -0.002278 1.249697 0.087922
v -0.002103 1.249583 0.088152
v -0.001427 1.249789 0.089383
v -0.001093 1.250765 0.090457
v -0.001104 1.251070 0.090601
v -0.002413 1.253142 0.090226
v -0.001152 1.252362 0.091209
v 0.000040 1.247302 0.085158
v -0.001594 1.254336 0.091526
v -0.002353 1.256388 0.091359
v -0.003312 1.258205 0.090733
v -0.004327 1.259510 0.089744
v -0.004410 1.257638 0.089305
v -0.005067 1.259991 0.088772
v -0.005242 1.260105 0.088543
v -0.005918 1.259899 0.087311
v -0.006191 1.259790 0.085780
v -0.005935 1.263461 0.083842
v -0.005706 1.264130 0.084578
v -0.005318 1.265264 0.085825
v -0.005018 1.261163 0.088458
v -0.004069 1.265645 0.088101
v -0.002379 1.264546 0.090321
v -0.003018 1.250178 0.086950
v -0.002278 1.249697 0.087922
v -0.002103 1.249583 0.088152
v -0.044577 1.257281 0.089030
v -0.046074 1.260241 0.087280
v -0.042075 1.263911 0.087522
v -0.040119 1.260043 0.089809
v -0.047895 1.254088 0.087254
v -0.048705 1.255690 0.086307
v -0.047195 1.252048 0.087794
v -0.043283 1.253513 0.090028
v -0.038429 1.255121 0.091112
v -0.035199 1.261954 0.089471
v -0.033369 1.256626 0.090882
v -0.030567 1.262723 0.088070
v -0.028876 1.257800 0.089373
v -0.032105 1.250966 0.091013
v -0.027708 1.252571 0.089494
v -0.037261 1.249891 0.091233
v -0.042389 1.249511 0.090120
v -0.046711 1.249882 0.087845
v -0.047071 1.245093 0.083883
v -0.043822 1.241939 0.084013
v -0.044276 1.242007 0.083129
v -0.045748 1.243709 0.080892
v -0.048528 1.246742 0.082850
v -0.047732 1.245821 0.084061
v -0.047070 1.245722 0.085350
v -0.043053 1.241823 0.085511
v -0.038127 1.239846 0.085210
v -0.039725 1.240087 0.082098
v -0.041649 1.242311 0.079176
v -0.047245 1.246669 0.079142
v -0.043605 1.246178 0.076890
v -0.036855 1.242761 0.077963
v -0.038972 1.246947 0.075488
v -0.032096 1.244990 0.077437
v -0.034052 1.248857 0.075151
v -0.042264 1.243184 0.087676
v -0.042032 1.245884 0.089295
v -0.036793 1.245153 0.090154
v -0.037097 1.241625 0.088039
v -0.042557 1.242679 0.086872
v -0.031929 1.242019 0.087556
v -0.033043 1.240094 0.084494
v -0.034773 1.240354 0.081125
v -0.030173 1.242767 0.080359
v -0.026625 1.246958 0.079915
v -0.028097 1.248660 0.077679
v -0.031599 1.245837 0.089846
v -0.028575 1.242526 0.083471
v -0.027545 1.244305 0.086300
v -0.027241 1.247832 0.088415
v -0.027708 1.252571 0.089494
v -0.032105 1.250966 0.091013
v -0.037261 1.249892 0.091233
v -0.042389 1.249511 0.090121
v -0.046517 1.247920 0.087398
v -0.045806 1.245833 0.086742
v -0.046711 1.249883 0.087845
v -0.046643 1.246459 0.086522
v -0.024381 1.250835 0.086081
v -0.024614 1.248136 0.084463
v -0.024906 1.247630 0.083659
v -0.025402 1.246774 0.082297
v -0.026171 1.246890 0.080800
v -0.025044 1.251272 0.079872
v -0.024008 1.252191 0.081151
v -0.024670 1.252290 0.079862
v -0.048528 1.246742 0.082850
v -0.047884 1.245998 0.083829
v -0.047732 1.245821 0.084061
v -0.040802 1.252275 0.074077
v -0.038972 1.246946 0.075488
v -0.034052 1.248857 0.075151
v -0.035743 1.253780 0.073847
v -0.029594 1.251620 0.075929
v -0.030888 1.255388 0.074932
v -0.045296 1.251101 0.075586
v -0.043605 1.246178 0.076890
v -0.046464 1.256330 0.075465
v -0.042067 1.257935 0.073946
v -0.036911 1.259009 0.073726
v -0.031782 1.259390 0.074839
v -0.026977 1.256852 0.077165
v -0.026277 1.254813 0.077705
v -0.025467 1.253211 0.078652
v -0.028097 1.248660 0.077679
v -0.032096 1.244990 0.077437
v -0.027461 1.259018 0.077115
v -0.025467 1.253211 0.078652
v -0.028097 1.248660 0.077679
v -0.026625 1.246958 0.079916
v -0.025044 1.251272 0.079873
v -0.024822 1.252466 0.079631
v -0.024670 1.252290 0.079862
v -0.024605 1.257951 0.080208
v -0.025643 1.262159 0.082109
v -0.025258 1.260597 0.081403
v -0.026288 1.262904 0.081130
v -0.026440 1.263079 0.080899
v -0.027102 1.263179 0.079610
v -0.027529 1.262442 0.078438
v -0.027553 1.262163 0.078270
v -0.026523 1.259857 0.078544
v -0.027655 1.260981 0.077562
v -0.027461 1.259018 0.077115
v -0.026977 1.256853 0.077165
v -0.026277 1.254813 0.077705
v -0.025147 1.254971 0.079229
v -0.024833 1.260557 0.083056
v -0.026927 1.262232 0.085817
v -0.028424 1.265192 0.084067
v -0.028876 1.257800 0.089373
v -0.030567 1.262723 0.088070
v -0.025633 1.258464 0.086814
v -0.027708 1.252571 0.089494
v -0.024739 1.254462 0.086907
v -0.027241 1.247832 0.088415
v -0.024381 1.250835 0.086082
v -0.023649 1.256352 0.083646
v -0.023455 1.254389 0.083199
v -0.024133 1.258518 0.083596
v -0.024008 1.252191 0.081151
v -0.023581 1.252928 0.082323
v -0.023779 1.252012 0.082732
v -0.023557 1.253207 0.082491
v -0.023882 1.255711 0.082089
v -0.025402 1.246774 0.082298
v -0.024906 1.247630 0.083659
v -0.024614 1.248136 0.084463
v -0.000504 1.262134 0.092148
v -0.002379 1.264546 0.090321
v 0.000997 1.268805 0.090203
v 0.003446 1.265654 0.092590
v -0.003312 1.258205 0.090733
v -0.004327 1.259510 0.089744
v -0.002353 1.256388 0.091359
v 0.001269 1.258777 0.093304
v 0.005763 1.261268 0.094101
v 0.007936 1.268230 0.091992
v 0.010444 1.263482 0.093627
v 0.012283 1.269468 0.090444
v 0.014600 1.265082 0.091955
v 0.012427 1.258120 0.094064
v 0.016432 1.260128 0.092358
v 0.007594 1.256315 0.094504
v 0.002671 1.254986 0.093613
v -0.001594 1.254336 0.091526
v 0.008804 1.247693 0.091923
v 0.008662 1.251548 0.093740
v 0.013583 1.252961 0.093236
v 0.003597 1.248387 0.091638
v 0.003368 1.247718 0.090901
v -0.000197 1.250311 0.090683
v 0.002979 1.246584 0.089654
v 0.000040 1.247302 0.085158
v -0.003018 1.250178 0.086950
v -0.001370 1.248937 0.088004
v -0.002103 1.249583 0.088152
v -0.001427 1.249789 0.089383
v -0.001093 1.250765 0.090457
v -0.001104 1.251070 0.090601
v -0.001152 1.252362 0.091210
v 0.003488 1.251338 0.093028
v 0.007594 1.256315 0.094504
v 0.012427 1.258121 0.094064
v 0.016432 1.260128 0.092358
v 0.017500 1.255361 0.091594
v 0.013736 1.248788 0.091270
v -0.001594 1.254336 0.091526
v 0.002671 1.254986 0.093613
v 0.007997 1.245337 0.089331
v 0.002194 1.246345 0.088223
v 0.001731 1.246203 0.087379
v -0.001834 1.249714 0.083331
v 0.004157 1.246275 0.083457
v 0.001708 1.249426 0.081070
v 0.008706 1.247254 0.082106
v 0.011097 1.245700 0.085246
v 0.015204 1.248653 0.084212
v 0.016835 1.249151 0.087185
v 0.019310 1.253631 0.085688
v 0.017642 1.251506 0.089777
v 0.019698 1.254764 0.086936
v 0.019927 1.255433 0.087672
v 0.019818 1.258384 0.089063
v 0.012863 1.246239 0.088464
v 0.006366 1.244840 0.086358
v 0.018524 1.253391 0.084258
v 0.019909 1.258996 0.084202
v 0.019233 1.258789 0.082971
v 0.019009 1.257731 0.083056
v 0.018061 1.253249 0.083413
v 0.012995 1.250089 0.081311
v 0.006055 1.250664 0.079522
v 0.010546 1.253240 0.078924
v 0.016370 1.254348 0.081193
v -0.030567 1.262723 0.088070
v -0.028424 1.265192 0.084067
v -0.026927 1.262232 0.085817
v -0.035199 1.261955 0.089472
v -0.032523 1.266590 0.085783
v -0.029896 1.266894 0.081831
v -0.027100 1.263808 0.081077
v -0.026440 1.263079 0.080899
v -0.026288 1.262903 0.081130
v -0.027102 1.263179 0.079610
v -0.025643 1.262159 0.082109
v -0.030350 1.266962 0.080947
v -0.031119 1.267078 0.079449
v -0.034446 1.268814 0.082861
v -0.037317 1.266140 0.086997
v -0.040119 1.260044 0.089809
v -0.042075 1.263911 0.087522
v -0.039399 1.268547 0.083834
v -0.043999 1.266134 0.084600
v -0.041129 1.268807 0.080465
v -0.036045 1.269054 0.079749
v -0.037074 1.267276 0.076920
v -0.031615 1.266222 0.078087
v -0.031907 1.265717 0.077283
v -0.028365 1.263068 0.078217
v -0.032140 1.263017 0.075665
v -0.049128 1.257630 0.085087
v -0.048001 1.262011 0.084160
v -0.047547 1.261943 0.085044
v -0.048770 1.262127 0.082662
v -0.045597 1.266375 0.081488
v -0.042243 1.266882 0.077403
v -0.037379 1.263748 0.074805
v -0.031782 1.259390 0.074839
v -0.027461 1.259018 0.077115
v -0.027655 1.260981 0.077562
v -0.027553 1.262163 0.078270
v -0.027529 1.262442 0.078438
v -0.046627 1.264596 0.078659
v -0.042573 1.263064 0.075114
v -0.049266 1.261271 0.081300
v -0.049558 1.260766 0.080497
v -0.046931 1.261069 0.076544
v -0.042067 1.257935 0.073946
v -0.036911 1.259009 0.073726
v -0.049791 1.258066 0.078878
v -0.046464 1.256330 0.075465
v -0.003508 1.263533 0.079920
v -0.002441 1.258766 0.079156
v 0.001565 1.260773 0.077450
v -0.005935 1.263461 0.083842
v -0.005827 1.260511 0.082451
v -0.003650 1.267388 0.081737
v -0.005318 1.265264 0.085825
v -0.005706 1.264130 0.084578
v 0.000409 1.265933 0.078278
v 0.006397 1.262579 0.077010
v 0.005329 1.267346 0.077774
v 0.011321 1.263908 0.077901
v 0.010503 1.267557 0.078486
v 0.015586 1.264558 0.079988
v 0.015143 1.266532 0.080304
v 0.014189 1.268583 0.080831
v 0.015096 1.267824 0.080913
v 0.015085 1.268129 0.081057
v 0.011012 1.272310 0.081860
v 0.015419 1.269104 0.082131
v 0.016095 1.269311 0.083362
v 0.011798 1.272549 0.083291
v -0.002844 1.269743 0.084329
v -0.001212 1.270241 0.087302
v -0.004533 1.265503 0.087256
v -0.005018 1.261164 0.088458
v -0.005242 1.260105 0.088543
v -0.005918 1.259899 0.087311
v -0.004069 1.265645 0.088101
v -0.002379 1.264546 0.090321
v 0.000997 1.268805 0.090203
v 0.013951 1.271592 0.086356
v 0.015362 1.269957 0.083510
v 0.016269 1.269197 0.083591
v 0.017009 1.268716 0.084563
v 0.012283 1.269468 0.090444
v 0.015826 1.269180 0.088183
v 0.012261 1.272691 0.084135
v 0.009834 1.272619 0.088057
v 0.007936 1.268230 0.091992
v 0.005285 1.271640 0.089407
v 0.003446 1.265654 0.092590
v 0.002895 1.273194 0.086268
v 0.001129 1.272655 0.083050
v 0.000256 1.270106 0.080244
v 0.005188 1.271201 0.079591
v 0.010395 1.270507 0.079876
v 0.010624 1.271176 0.080612
v 0.005994 1.273557 0.082183
v 0.007626 1.274055 0.085156
v -0.000609 1.253812 0.079559
v 0.001708 1.249426 0.081070
v 0.006055 1.250664 0.079522
v -0.002441 1.258766 0.079156
v 0.003548 1.255412 0.077887
v 0.010546 1.253240 0.078924
v 0.012995 1.250089 0.081311
v 0.016370 1.254348 0.081193
v 0.011321 1.263908 0.077901
v 0.016344 1.262506 0.080155
v 0.015586 1.264558 0.079988
v 0.012723 1.260117 0.078210
v 0.017304 1.260689 0.080781
v 0.014496 1.256760 0.079366
v 0.018319 1.259384 0.081770
v 0.008229 1.257626 0.077413
v 0.001565 1.260774 0.077450
v 0.006397 1.262579 0.077010
v 0.020183 1.259104 0.085734
v 0.020243 1.259971 0.085276
v 0.019909 1.258996 0.084203
v 0.019310 1.253631 0.085689
v 0.019698 1.254764 0.086936
v 0.019927 1.255433 0.087672
v 0.019818 1.258384 0.089063
v 0.015826 1.269181 0.088183
v 0.013951 1.271592 0.086356
v 0.017009 1.268716 0.084564
v 0.018024 1.267411 0.085553
v 0.017599 1.265824 0.089339
v 0.018983 1.265594 0.086178
v 0.019001 1.262032 0.089648
v 0.019742 1.263543 0.086345
v 0.020185 1.261568 0.086029
v 0.020232 1.260276 0.085420
v 0.018543 1.264429 0.082953
v 0.019233 1.258789 0.082971
v 0.019059 1.258903 0.082742
v 0.019009 1.257731 0.083056
v 0.018319 1.259384 0.081770
v 0.018061 1.253249 0.083413
v 0.016370 1.254348 0.081193
v 0.019575 1.262630 0.084887
v 0.017578 1.267125 0.083966
v 0.016269 1.269197 0.083592
v 0.016095 1.269311 0.083362
v 0.015419 1.269105 0.082131
v 0.015085 1.268129 0.081057
v 0.015096 1.267824 0.080913
v 0.016405 1.265752 0.081288
v 0.015143 1.266532 0.080305
v 0.015586 1.264558 0.079988
v 0.016344 1.262506 0.080155
v 0.017304 1.260689 0.080781
v 0.018402 1.261257 0.082209
v -0.049567 1.250949 0.084752
v -0.050614 1.255694 0.082469
v -0.050590 1.255973 0.082636
v -0.049791 1.258065 0.078878
v -0.048914 1.248304 0.083556
v -0.047884 1.245998 0.083829
v -0.048528 1.246742 0.082850
v -0.047732 1.245821 0.084061
v -0.047070 1.245722 0.085350
v -0.046643 1.246459 0.086521
v -0.046619 1.246738 0.086689
v -0.047649 1.249044 0.086416
v -0.046517 1.247920 0.087398
v -0.046711 1.249882 0.087845
v -0.047195 1.252048 0.087794
v -0.047895 1.254088 0.087254
v -0.048705 1.255690 0.086307
v -0.049025 1.253930 0.085730
v -0.049350 1.256434 0.085328
v -0.049502 1.256610 0.085097
v -0.050164 1.256710 0.083808
v -0.049128 1.257629 0.085087
v -0.047547 1.261943 0.085044
v -0.046074 1.260241 0.087280
v -0.050393 1.256889 0.082227
v -0.049558 1.260765 0.080497
v -0.049266 1.261270 0.081300
v -0.048770 1.262127 0.082662
v -0.046464 1.256330 0.075465
v -0.046931 1.261069 0.076544
v -0.050523 1.252549 0.081313
v -0.050716 1.254512 0.081760
v -0.050290 1.253190 0.082870
v -0.049433 1.254439 0.078052
v -0.045296 1.251101 0.075586
v -0.048539 1.250436 0.078145
v -0.043605 1.246178 0.076890
v -0.047245 1.246669 0.079142
v -0.050039 1.250383 0.081363
v -0.049339 1.248344 0.081903
v -0.045748 1.243708 0.080892
v -0.046074 1.260241 0.087280
v -0.049502 1.256611 0.085097
v -0.050164 1.256710 0.083808
v 0.014600 1.265082 0.091955
v 0.012283 1.269468 0.090444
v 0.016432 1.260128 0.092358
v 0.017500 1.255361 0.091594
vn 0.9140 -0.0113 0.4056
vn 0.8037 0.2170 0.5541
vn 0.6666 -0.1592 0.7282
vn 0.5274 0.0854 0.8453
vn 0.7074 0.4314 0.5599
vn 0.4059 0.3551 0.8421
vn 0.6336 0.6573 0.4080
vn 0.3225 0.6312 0.7054
vn -0.7746 0.2896 0.5622
vn -0.8426 0.4955 0.2110
vn -0.9244 0.1845 0.3337
vn -0.7917 0.1945 0.5791
vn -0.7693 0.4712 0.4315
vn -0.6836 0.4557 0.5701
vn -0.4703 0.7096 0.5247
vn -0.5134 0.3355 0.7899
vn -0.3091 0.5156 0.7991
vn -0.6889 -0.5294 -0.4951
vn -0.6708 -0.7239 -0.1610
vn -0.9090 -0.4070 -0.0899
vn -0.8645 -0.4968 0.0760
vn -0.9803 -0.1563 -0.1211
vn -0.9475 -0.2872 -0.1408
vn -0.8872 -0.1917 0.4196
vn -0.7290 -0.2925 -0.6189
vn -0.8029 -0.0709 -0.5919
vn -0.9994 -0.0222 -0.0279
vn 0.6178 0.4648 -0.6342
vn -0.3775 -0.5241 -0.7634
vn -0.4194 -0.2371 -0.8763
vn -0.5078 0.0440 -0.8603
vn -0.8901 0.1631 -0.4256
vn -0.9962 0.0394 0.0777
vn -0.9916 -0.0990 -0.0827
vn -0.6107 0.2996 -0.7330
vn -0.9191 0.1595 0.3603
vn -0.8398 0.4671 0.2767
vn -0.9750 0.2209 0.0241
vn -0.8962 0.4409 0.0491
vn -0.8909 0.4444 -0.0939
vn -0.9854 0.0978 0.1391
vn -0.7355 0.0540 0.6754
vn -0.5412 0.2797 0.7930
vn -0.7120 0.4416 0.5459
vn -0.7746 0.2896 0.5623
vn -0.7838 0.1221 0.6089
vn -0.8357 0.1457 0.5295
vn -0.8240 -0.0347 0.5655
vn -0.6746 0.0391 0.7371
vn -0.6273 -0.0675 0.7759
vn -0.6092 -0.1893 0.7701
vn -0.6220 -0.3173 0.7159
vn -0.6495 -0.2668 0.7120
vn -0.6493 -0.3491 0.6757
vn -0.6640 -0.4337 0.6091
vn -0.7159 -0.5196 0.4663
vn -0.7703 -0.5753 0.2749
vn -0.8363 -0.5277 0.1487
vn 0.7812 -0.0548 -0.6218
vn 0.9534 -0.0694 -0.2935
vn 0.8340 0.2722 -0.4800
vn 0.7217 -0.0068 -0.6921
vn 0.6547 -0.0003 -0.7559
vn 0.5885 0.0917 -0.8033
vn 0.5499 0.2047 -0.8097
vn 0.5422 0.3306 -0.7725
vn -0.7559 -0.3996 0.5185
vn 0.5625 0.3692 -0.7397
vn 0.5673 0.4558 -0.6859
vn 0.6140 0.5576 -0.5586
vn 0.6680 0.6353 -0.3875
vn 0.7446 0.6133 -0.2634
vn 0.9051 0.3688 -0.2117
vn 0.7827 0.5968 -0.1766
vn 0.8501 0.5265 -0.0030
vn 0.9073 0.4156 0.0634
vn 0.9553 0.2895 0.0594
vn 0.9876 0.1563 -0.0166
vn 0.3674 0.2928 0.8828
vn 0.9898 0.0888 -0.1114
vn 0.7639 -0.3813 -0.5207
vn 0.5708 -0.2636 -0.7777
vn 0.8052 -0.2145 -0.5528
vn 0.8388 -0.0676 -0.5402
vn 0.9279 -0.0556 -0.3687
vn 0.9860 0.0294 -0.1639
vn 0.9960 -0.0848 -0.0290
vn 0.5692 0.8213 0.0376
vn 0.9447 -0.3057 0.1183
vn 0.9516 -0.3069 -0.0172
vn 0.9001 -0.3534 -0.2549
vn 0.2700 0.1215 -0.9552
vn 0.3402 -0.0418 -0.9394
vn 0.0281 0.0531 -0.9982
vn 0.1078 -0.1546 -0.9821
vn -0.2179 -0.0175 -0.9758
vn 0.4385 -0.1843 -0.8796
vn -0.1321 -0.2570 -0.9573
vn -0.4999 -0.0622 -0.8638
vn 0.2264 -0.3445 -0.9111
vn 0.5645 -0.3287 -0.7572
vn 0.7377 -0.1392 -0.6606
vn 0.6376 0.0264 -0.7699
vn 0.5846 0.1004 -0.8051
vn 0.4386 0.2692 -0.8574
vn 0.3695 -0.5297 -0.7634
vn -0.0071 -0.4770 -0.8789
vn -0.4055 -0.3559 -0.8419
vn -0.2553 -0.6159 -0.7453
vn 0.3026 0.6567 -0.6908
vn 0.2678 0.5540 -0.7882
vn -0.0717 0.6085 -0.7903
vn -0.0420 0.9083 -0.4163
vn -0.4321 0.5788 -0.6916
vn -0.4336 0.8677 -0.2431
vn -0.2995 0.9050 0.3020
vn 0.0696 0.9928 0.0978
vn -0.1251 0.7163 0.6865
vn 0.1972 0.8350 0.5136
vn 0.4365 0.8901 -0.1313
vn 0.3915 0.8481 -0.3570
vn 0.3309 0.7869 -0.5209
vn 0.4393 0.4939 -0.7504
vn 0.2538 0.3201 -0.9128
vn -0.0387 0.2994 -0.9533
vn -0.3406 0.2470 -0.9072
vn -0.7549 0.4446 -0.4821
vn -0.7435 0.6681 -0.0300
vn -0.5807 0.6786 0.4498
vn -0.3835 0.5284 0.7574
vn -0.2115 0.3425 0.9154
vn 0.0271 0.4856 0.8738
vn 0.3398 0.5981 0.7258
vn 0.5310 0.8066 0.2596
vn 0.6047 0.7483 -0.2728
vn 0.7204 0.6229 -0.3048
vn 0.5808 0.5533 0.5971
vn 0.7689 0.6394 -0.0038
vn -0.5633 0.3117 0.7652
vn -0.7484 0.3935 0.5338
vn -0.8347 0.3851 0.3937
vn -0.8053 0.2146 0.5527
vn -0.9097 0.3802 0.1672
vn -0.9364 0.0743 0.3429
vn -0.8075 0.1201 0.5775
vn 0.6214 0.5664 -0.5413
vn 0.5636 0.4259 -0.7078
vn 0.5471 0.2937 -0.7839
vn 0.4794 0.0760 -0.8743
vn 0.2879 0.1253 -0.9494
vn 0.0187 0.0502 -0.9986
vn -0.2530 -0.0326 -0.9669
vn -0.6432 0.1494 -0.7510
vn -0.9617 0.1543 -0.2266
vn -0.9516 0.3070 0.0171
vn -0.8482 -0.0189 -0.5294
vn -0.4548 -0.1483 -0.8782
vn -0.2232 0.0668 -0.9725
vn -0.4472 -0.0249 -0.8941
vn -0.6019 0.2954 -0.7420
vn -0.8398 0.1416 -0.5241
vn -0.9243 0.3142 -0.2166
vn 0.3489 0.1494 -0.9252
vn 0.0648 0.1152 -0.9912
vn 0.0399 0.3806 -0.9239
vn -0.2771 0.3656 -0.8886
vn -0.6751 0.5969 -0.4335
vn -0.6287 0.7756 0.0571
vn -0.8962 0.4409 0.0490
vn -0.3255 0.7109 -0.6234
vn 0.7314 0.5287 -0.4307
vn 0.4714 0.7904 -0.3912
vn 0.7170 0.6832 -0.1383
vn 0.5491 0.4975 -0.6716
vn 0.6571 0.4084 -0.6336
vn 0.6493 0.3492 -0.6757
vn 0.6224 0.2731 -0.7335
vn 0.3385 0.3559 -0.8711
vn 0.5217 0.0722 -0.8501
vn 0.0498 0.6992 -0.7132
vn -0.2863 0.9504 -0.1213
vn 0.4344 0.6828 -0.5874
vn 0.1138 0.9536 -0.2789
vn 0.5304 0.8216 -0.2089
vn 0.2126 0.9475 0.2388
vn -0.1602 0.8953 0.4157
vn -0.0343 0.6580 0.7522
vn 0.3858 0.5907 -0.7087
vn -0.1758 0.3049 0.9360
vn 0.0698 0.4117 0.9087
vn 0.2909 0.7377 0.6092
vn 0.5645 0.8253 0.0130
vn 0.6168 0.6917 0.3758
vn 0.8412 0.5237 0.1346
vn 0.8361 0.5279 -0.1489
vn 0.8210 0.5401 -0.1852
vn 0.3825 0.4856 0.7861
vn 0.6149 0.4153 0.6704
vn 0.5634 -0.3117 -0.7651
vn 0.7484 -0.3936 -0.5339
vn 0.3835 -0.5285 -0.7574
vn 0.2115 -0.3425 -0.9154
vn -0.0271 -0.4856 -0.8738
vn 0.1251 -0.7163 -0.6865
vn -0.3398 -0.5981 -0.7258
vn 0.5807 -0.6786 -0.4498
vn 0.8347 -0.3851 -0.3937
vn 0.8053 -0.2146 -0.5527
vn 0.9364 -0.0743 -0.3429
vn 0.8075 -0.1201 -0.5775
vn 0.9097 -0.3802 -0.1672
vn -0.1972 -0.8351 -0.5136
vn -0.5310 -0.8066 -0.2595
vn -0.5808 -0.5533 -0.5971
vn -0.0695 -0.9928 -0.0978
vn 0.2996 -0.9050 -0.3020
vn 0.4336 -0.8677 0.2431
vn 0.7435 -0.6681 0.0300
vn 0.7549 -0.4446 0.4821
vn -0.4365 -0.8901 0.1313
vn -0.6047 -0.7483 0.2727
vn 0.0420 -0.9083 0.4163
vn 0.4321 -0.5788 0.6916
vn 0.6432 -0.1494 0.7510
vn 0.8482 0.0189 0.5294
vn 0.9617 -0.1542 0.2266
vn 0.9516 -0.3069 -0.0171
vn -0.3915 -0.8482 0.3568
vn -0.3309 -0.7869 0.5209
vn 0.0716 -0.6085 0.7903
vn -0.0187 -0.0502 0.9986
vn -0.2879 -0.1254 0.9494
vn -0.2538 -0.3201 0.9128
vn -0.5471 -0.2937 0.7839
vn -0.4794 -0.0761 0.8743
vn 0.3406 -0.2470 0.9072
vn 0.4548 0.1483 0.8781
vn 0.2530 0.0326 0.9669
vn 0.0387 -0.2994 0.9533
vn -0.2678 -0.5540 0.7883
vn -0.4393 -0.4939 0.7504
vn -0.5626 -0.3692 0.7397
vn -0.5636 -0.4260 0.7077
vn -0.6215 -0.5664 0.5413
vn -0.7205 -0.6229 0.3047
vn -0.7688 -0.6394 0.0039
vn -0.3026 -0.6566 0.6909
vn -0.3402 0.0418 0.9394
vn -0.5846 -0.1004 0.8051
vn -0.4386 -0.2692 0.8574
vn -0.2699 -0.1215 0.9552
vn -0.1078 0.1547 0.9821
vn -0.0281 -0.0531 0.9982
vn 0.1321 0.2570 0.9573
vn 0.2180 0.0174 0.9758
vn 0.4999 0.0622 0.8638
vn 0.4055 0.3560 0.8419
vn 0.2553 0.6159 0.7453
vn 0.0070 0.4771 0.8788
vn -0.2263 0.3445 0.9111
vn -0.4385 0.1843 0.8796
vn -0.6376 -0.0264 0.7699
vn -0.5645 0.3287 0.7572
vn -0.7377 0.1392 0.6606
vn -0.3695 0.5297 0.7634
vn 0.9750 -0.2208 -0.0241
vn 0.9994 0.0222 0.0280
vn 0.8901 -0.1630 0.4256
vn 0.8909 -0.4444 0.0939
vn 0.8962 -0.4409 -0.0491
vn 0.9191 -0.1595 -0.3604
vn 0.8398 -0.4671 -0.2767
vn 0.9962 -0.0393 -0.0777
vn 0.9854 -0.0978 -0.1393
vn 0.8872 0.1917 -0.4196
vn 0.2459 -0.1444 -0.9585
vn 0.8357 -0.1457 -0.5295
vn 0.9803 0.1563 0.1212
vn 0.9475 0.2873 0.1408
vn 0.8029 0.0709 0.5919
vn 0.7290 0.2925 0.6189
vn 0.9090 0.4070 0.0899
vn 0.6107 -0.2996 0.7330
vn 0.5078 -0.0440 0.8603
vn 0.4195 0.2371 0.8763
vn 0.6889 0.5294 0.4951
vn 0.8645 0.4968 -0.0760
vn 0.3775 0.5241 0.7634
vn 0.6708 0.7239 0.1610
vn 0.7838 -0.1221 -0.6089
vn -0.7352 0.0532 0.6757
vn 0.7355 -0.0540 -0.6754
vn 0.6746 -0.0391 -0.7371
vn 0.6273 0.0675 -0.7759
vn 0.6092 0.1893 -0.7701
vn 0.6219 0.3174 -0.7159
vn -0.9417 -0.2974 -0.1575
vn 0.6493 0.3491 -0.6757
vn 0.6640 0.4337 -0.6091
vn 0.7159 0.5196 -0.4663
vn 0.7702 0.5754 -0.2752
vn 0.8361 0.5279 -0.1490
vn -0.2578 0.9272 -0.2717
vn 0.7746 -0.2896 -0.5622
vn 0.7120 -0.4416 -0.5459
vn 0.5412 -0.2797 -0.7930
vn 0.5139 0.2678 -0.8150
vn 0.6269 0.0685 -0.7761
vn 0.3123 0.1495 -0.9381
vn 0.5206 -0.3560 -0.7761
vn 0.3079 -0.5155 -0.7997
vn 0.1978 -0.3119 -0.9293
vn 0.4303 -0.1873 -0.8830
vn 0.7296 -0.2089 -0.6512
vn 0.6638 -0.0134 -0.7478
vn 0.3616 -0.0285 -0.9319
vn 0.0635 0.1150 -0.9913
vn 0.1138 -0.1061 -0.9878
vn -0.1902 0.0761 -0.9788
vn -0.1372 -0.1751 -0.9750
vn -0.4799 0.0558 -0.8755
vn -0.4174 -0.2440 -0.8753
vn -0.0511 -0.4065 -0.9122
vn -0.3056 -0.5131 -0.8021
vn 0.0627 0.6034 0.7950
vn -0.7465 -0.4829 0.4578
vn -0.1825 0.6144 0.7676
vn 0.9244 -0.1845 -0.3337
vn 0.8426 -0.4955 -0.2111
vn 0.7693 -0.4712 -0.4315
vn 0.7746 -0.2897 -0.5622
vn 0.7918 -0.1945 -0.5790
vn 0.6836 -0.4557 -0.5701
vn 0.4702 -0.7096 -0.5247
vn 0.6287 -0.7756 -0.0571
vn 0.8962 -0.4409 -0.0490
vn 0.6751 -0.5969 0.4336
vn 0.9243 -0.3142 0.2166
vn 0.8398 -0.1416 0.5242
vn 0.6019 -0.2954 0.7420
vn -0.6224 -0.2731 0.7335
vn -0.6572 -0.4083 0.6335
vn -0.5491 -0.4975 0.6716
vn -0.7314 -0.5288 0.4306
vn -0.3489 -0.1494 0.9252
vn -0.5217 -0.0723 0.8501
vn -0.4714 -0.7904 0.3912
vn -0.4344 -0.6828 0.5874
vn -0.3858 -0.5907 0.7087
vn -0.3385 -0.3559 0.8711
vn -0.0648 -0.1153 0.9912
vn -0.0399 -0.3806 0.9239
vn 0.2232 -0.0668 0.9725
vn 0.2771 -0.3656 0.8886
vn 0.4472 0.0249 0.8941
vn 0.3255 -0.7109 0.6235
vn 0.2863 -0.9504 0.1213
vn 0.1602 -0.8953 -0.4157
vn -0.0497 -0.6991 0.7133
vn 0.5134 -0.3355 -0.7899
vn 0.3090 -0.5156 -0.7992
vn 0.0343 -0.6580 -0.7522
vn -0.2909 -0.7377 -0.6092
vn -0.2126 -0.9475 -0.2389
vn -0.1138 -0.9536 0.2789
vn 0.1759 -0.3049 -0.9360
vn -0.0697 -0.4117 -0.9086
vn -0.3824 -0.4857 -0.7860
vn -0.6149 -0.4153 -0.6704
vn -0.6168 -0.6917 -0.3758
vn -0.5645 -0.8253 -0.0130
vn -0.5304 -0.8216 0.2090
vn -0.7169 -0.6833 0.1383
vn -0.8210 -0.5401 0.1852
vn -0.8412 -0.5237 -0.1346
vn -0.3616 0.0285 0.9319
vn -0.6269 -0.0684 0.7761
vn -0.5139 -0.2677 0.8150
vn -0.3124 -0.1495 0.9381
vn -0.1138 0.1061 0.9878
vn -0.0635 -0.1150 0.9913
vn 0.1372 0.1751 0.9750
vn 0.1903 -0.0761 0.9788
vn 0.4799 -0.0558 0.8755
vn 0.4174 0.2441 0.8753
vn 0.3056 0.5132 0.8021
vn 0.0511 0.4065 0.9122
vn -0.1978 0.3119 0.9293
vn -0.4303 0.1873 0.8830
vn -0.6638 0.0135 0.7478
vn -0.5205 0.3560 0.7761
vn -0.7296 0.2089 0.6512
vn -0.3078 0.5154 0.7997
vn -0.8134 0.2983 0.4994
vn -0.8463 -0.5308 0.0447
vn -0.6977 0.6133 0.3701
vn -0.7217 0.0068 0.6922
vn -0.5707 0.2635 0.7777
vn -0.7639 0.3813 0.5207
vn -0.8053 0.2145 0.5527
vn -0.7812 0.0549 0.6219
vn -0.8388 0.0675 0.5402
vn -0.9279 0.0557 0.3687
vn -0.9001 0.3535 0.2548
vn -0.9960 0.0848 0.0289
vn -0.9516 0.3069 0.0172
vn -0.9447 0.3058 -0.1182
vn -0.9140 0.0113 -0.4055
vn -0.9860 -0.0295 0.1640
vn -0.8340 -0.2722 0.4800
vn -0.6442 -0.1282 0.7541
vn -0.6547 0.0003 0.7559
vn -0.5885 -0.0917 0.8033
vn -0.5499 -0.2047 0.8097
vn -0.5422 -0.3305 0.7725
vn -0.6336 -0.6573 -0.4080
vn -0.5692 -0.8214 -0.0377
vn -0.8501 -0.5265 0.0030
vn -0.7827 -0.5968 0.1766
vn -0.5673 -0.2275 0.7914
vn -0.5625 -0.3693 0.7397
vn -0.5673 -0.4558 0.6859
vn -0.6140 -0.5576 0.5586
vn -0.6682 -0.6353 0.3872
vn -0.7448 -0.6132 0.2633
vn -0.1030 -0.5851 0.8044
vn -0.9073 -0.4156 -0.0634
vn -0.7074 -0.4314 -0.5599
vn -0.3225 -0.6312 -0.7054
vn -0.4059 -0.3551 -0.8421
vn -0.8037 -0.2170 -0.5541
vn -0.5274 -0.0854 -0.8453
vn -0.9553 -0.2895 -0.0594
vn -0.9876 -0.1563 0.0166
vn -0.9898 -0.0888 0.1115
vn -0.9187 -0.2265 0.3237
vn -0.6667 0.1591 -0.7281
vn 0.4540 -0.8908 -0.0191
vn -0.9599 -0.2539 0.1187
vn 0.8541 0.4859 -0.1857
vt 0.277058 -0.659452
vt 0.390327 -0.785180
vt 0.184910 -0.863543
vt 0.332909 -1.027814
vt 0.525028 -0.836619
vt 0.508904 -1.095022
vt 0.660656 -0.805937
vt 0.686104 -1.054935
vt 0.101352 -1.045779
vt 0.270089 -0.990305
vt 0.220365 -1.112328
vt 0.109766 -1.075122
vt 0.141575 -0.947072
vt 0.065731 -0.921558
vt 0.087809 -0.703815
vt -0.103387 -0.857650
vt -0.133154 -0.620316
vt 0.660660 -0.194062
vt 0.776562 -0.302193
vt 0.610756 -0.489636
vt 0.673477 -0.548156
vt 0.464451 -0.500870
vt 0.537354 -0.473032
vt 0.543983 -0.786788
vt 0.525032 -0.163380
vt 0.390331 -0.214819
vt 0.403149 -0.568913
vt 0.625420 -0.636721
vt 0.686111 0.054936
vt 0.508904 0.095023
vt 0.332909 0.027816
vt 0.277061 -0.340548
vt 0.370491 -0.648098
vt 0.455418 -0.649774
vt 0.184914 -0.136456
vt 0.349483 -0.779635
vt 0.177902 -0.729911
vt 0.332150 -0.639022
vt 0.193352 -0.598800
vt 0.202469 -0.521423
vt 0.362782 -0.666803
vt 0.407795 -0.981759
vt 0.285641 -1.103387
vt 0.207111 -0.934269
vt 0.335064 -0.898648
vt 0.373413 -0.907722
vt 0.365292 -0.890234
vt 0.458336 -0.909399
vt 0.470516 -1.040279
vt 0.543919 -1.056884
vt 0.616817 -1.029046
vt 0.678120 -0.961002
vt 0.628338 -0.896345
vt 0.710777 -0.881818
vt 0.718491 -0.863112
vt 0.731789 -0.750280
vt 0.715977 -0.639682
vt 0.707851 -0.622193
vt 0.373405 -0.092276
vt 0.458336 -0.090600
vt 0.543976 -0.213211
vt 0.407787 -0.018239
vt 0.470516 0.040280
vt 0.543915 0.056885
vt 0.616817 0.029047
vt 0.678116 -0.038997
vt 0.628330 -0.103653
vt 0.710773 -0.118181
vt 0.718487 -0.136887
vt 0.731781 -0.249719
vt 0.715973 -0.360317
vt 0.707855 -0.377806
vt 0.625416 -0.363279
vt 0.673473 -0.451843
vt 0.610748 -0.510363
vt 0.537346 -0.526968
vt 0.464451 -0.499129
vt 0.403145 -0.431086
vt 0.455414 -0.350225
vt 0.370483 -0.351902
vt 0.207104 -0.065730
vt 0.285637 0.103387
vt 0.335060 -0.101351
vt 0.365288 -0.109766
vt 0.349483 -0.220364
vt 0.362774 -0.333196
vt 0.332142 -0.360976
vt 0.776558 -0.697807
vt 0.202461 -0.478576
vt 0.193344 -0.401200
vt 0.177898 -0.270088
vt 0.328136 -0.219975
vt 0.462837 -0.218947
vt 0.299248 -0.481106
vt 0.475243 -0.479762
vt 0.300926 -0.745113
vt 0.598461 -0.191688
vt 0.491421 -0.743659
vt 0.332909 -0.971805
vt 0.652451 -0.444148
vt 0.714363 -0.142350
vt 0.592213 0.040535
vt 0.529484 0.013834
vt 0.456085 -0.000918
vt 0.383183 -0.001475
vt 0.803883 -0.379684
vt 0.683224 -0.705110
vt 0.508904 -0.970462
vt 0.686111 -0.934847
vt 0.806781 -0.123306
vt 0.884158 -0.146732
vt 0.846717 -0.385409
vt 0.574314 -0.302938
vt 0.756491 -0.641532
vt 0.461646 -0.552267
vt 0.172639 -0.455043
vt 0.307308 -0.213116
vt -0.066530 -0.364665
vt 0.086344 -0.129617
vt 0.471312 -0.014864
vt 0.547156 -0.040379
vt 0.675670 -0.083611
vt 0.867135 0.002833
vt 1.065034 -0.194616
vt 1.083042 -0.447973
vt 1.012288 -0.709251
vt 0.627218 -0.876108
vt 0.354816 -0.793638
vt -0.274434 -0.555852
vt -0.219449 -0.294890
vt -0.054935 -0.065153
vt 0.302193 0.049043
vt 0.607510 0.085761
vt 0.639683 0.109530
vt 0.194063 0.098382
vt 0.548157 0.144117
vt 0.622194 0.116139
vt 0.750281 0.072325
vt 0.863113 0.038164
vt 0.881819 0.033212
vt 0.961003 0.012249
vt 1.029047 -0.001475
vt 1.190761 -0.219975
vt 1.247314 -0.481106
vt 1.190095 -0.745113
vt 0.863544 -0.938672
vt 0.478577 -1.053425
vt 0.401200 -1.029999
vt 0.659452 -1.101310
vt 1.027816 -0.971805
vt -0.103387 -0.142350
vt 0.065730 -0.078442
vt -0.133155 -0.379684
vt -0.274435 -0.444148
vt -0.219450 -0.705110
vt -0.066530 -0.635335
vt -0.054936 -0.934847
vt 0.087809 -0.296185
vt 0.141574 -0.052928
vt 0.101351 0.045778
vt 0.220364 0.112328
vt 0.109766 0.075122
vt 0.270088 -0.009695
vt 0.086344 -0.870383
vt 0.302193 -1.049043
vt 0.194062 -1.098382
vt 0.307307 -0.786884
vt 0.172639 -0.544956
vt 0.461645 -0.447733
vt 0.354815 -0.206362
vt 0.627218 -0.123891
vt 0.471311 -0.985136
vt 0.607509 -1.085760
vt 0.574314 -0.697061
vt 0.756491 -0.358468
vt 0.863543 -0.061327
vt 0.659452 0.101310
vt 0.478576 0.053425
vt 0.401200 0.029999
vt 0.547154 -0.959621
vt 0.675669 -0.916389
vt 0.846716 -0.614590
vt 1.247313 -0.518894
vt 1.190760 -0.780025
vt 1.065032 -0.805384
vt 0.961002 -1.012249
vt 1.029046 -0.998525
vt 1.012288 -0.290748
vt 1.027814 -0.028195
vt 1.190094 -0.254886
vt 1.083042 -0.552026
vt 0.884157 -0.853268
vt 0.867134 -1.002833
vt 0.881818 -1.033212
vt 0.863112 -1.038164
vt 0.750280 -1.072324
vt 0.639682 -1.109530
vt 0.548156 -1.144117
vt 0.806780 -0.876694
vt 0.462833 -0.781054
vt 0.456081 -0.999082
vt 0.383183 -0.998525
vt 0.328133 -0.780025
vt 0.475239 -0.520238
vt 0.299244 -0.518894
vt 0.491417 -0.256341
vt 0.300919 -0.254886
vt 0.332909 -0.028195
vt 0.508904 -0.029539
vt 0.686104 -0.065153
vt 0.683224 -0.294890
vt 0.652443 -0.555852
vt 0.598457 -0.808312
vt 0.529484 -1.013834
vt 0.714359 -0.857650
vt 0.592205 -1.040535
vt 0.803875 -0.620316
vt 0.622193 -1.116139
s 1
f 364/1/1 371/2/2 442/3/3
f 371/2/2 441/4/4 442/3/3
f 371/2/2 369/5/5 441/4/4
f 369/5/5 439/6/6 441/4/4
f 369/5/5 365/7/7 439/6/6
f 365/7/7 440/8/8 439/6/6
f 269/9/9 272/10/10 438/11/11
f 438/11/11 437/12/12 269/9/9
f 270/13/13 271/14/14 261/15/15
f 261/15/15 271/14/14 436/16/16
f 259/17/17 261/15/15 436/16/16
f 432/18/18 435/19/19 434/20/20
f 435/19/19 401/21/21 434/20/20
f 425/22/22 433/23/23 395/24/24
f 430/25/25 433/23/23 425/22/22
f 428/26/26 430/25/25 425/22/22
f 428/26/26 425/22/22 426/27/27
f 401/21/21 399/28/28 395/24/24
f 434/20/20 401/21/21 395/24/24
f 433/23/23 434/20/20 395/24/24
f 432/18/18 434/20/20 433/23/23
f 430/25/25 432/18/18 433/23/23
f 431/29/29 432/18/18 430/25/25
f 429/30/30 431/29/29 430/25/25
f 429/30/30 430/25/25 428/26/26
f 423/31/31 429/30/30 428/26/26
f 423/31/31 428/26/26 398/32/32
f 398/32/32 428/26/26 426/27/27
f 398/32/32 426/27/27 396/33/33
f 426/27/27 427/34/34 396/33/33
f 396/33/33 427/34/34 395/24/24
f 427/34/34 426/27/27 395/24/24
f 426/27/27 425/22/22 395/24/24
f 424/35/35 423/31/31 398/32/32
f 415/36/36 422/37/37 419/38/38
f 422/37/37 421/39/39 419/38/38
f 420/40/40 419/38/38 421/39/39
f 419/38/38 420/40/40 398/32/32
f 397/41/41 419/38/38 398/32/32
f 419/38/38 397/41/41 415/36/36
f 415/36/36 397/41/41 395/24/24
f 411/42/42 418/43/43 417/44/44
f 417/44/44 416/45/45 411/42/42
f 416/45/45 413/46/46 411/42/42
f 416/45/45 414/47/47 413/46/46
f 414/47/47 415/36/36 395/24/24
f 413/46/46 414/47/47 395/24/24
f 412/48/48 413/46/46 395/24/24
f 411/42/42 413/46/46 412/48/48
f 411/42/42 412/48/48 395/24/24
f 410/49/49 411/42/42 395/24/24
f 409/50/50 410/49/49 395/24/24
f 408/51/51 409/50/50 395/24/24
f 407/52/52 408/51/51 395/24/24
f 406/53/53 407/52/52 395/24/24
f 407/52/52 406/53/53 405/54/54
f 405/54/54 406/53/53 395/24/24
f 404/55/55 405/54/54 395/24/24
f 403/56/56 404/55/55 395/24/24
f 402/57/57 403/56/56 395/24/24
f 400/58/58 402/57/57 395/24/24
f 399/28/28 400/58/58 395/24/24
f 401/21/21 400/58/58 399/28/28
f 396/33/33 397/41/41 398/32/32
f 397/41/41 396/33/33 395/24/24
f 377/59/59 394/60/60 375/61/61
f 379/62/62 394/60/60 377/59/59
f 394/60/60 379/62/62 375/61/61
f 379/62/62 393/63/63 375/61/61
f 393/63/63 392/64/64 375/61/61
f 392/64/64 391/65/65 375/61/61
f 391/65/65 390/66/66 375/61/61
f 390/66/66 389/67/67 375/61/61
f 390/66/66 388/68/68 389/67/67
f 389/67/67 388/68/68 375/61/61
f 388/68/68 387/69/69 375/61/61
f 387/69/69 386/70/70 375/61/61
f 386/70/70 385/71/71 375/61/61
f 385/71/71 384/72/72 375/61/61
f 384/72/72 383/73/73 375/61/61
f 367/74/74 383/73/73 384/72/72
f 383/73/73 367/74/74 375/61/61
f 367/74/74 368/75/75 375/61/61
f 368/75/75 370/76/76 375/61/61
f 370/76/76 372/77/77 375/61/61
f 372/77/77 373/78/78 375/61/61
f 373/78/78 382/79/79 375/61/61
f 382/79/79 374/80/80 375/61/61
f 373/78/78 374/80/80 382/79/79
f 380/81/81 381/82/82 379/62/62
f 378/83/83 380/81/81 379/62/62
f 378/83/83 379/62/62 377/59/59
f 377/59/59 376/84/84 378/83/83
f 376/84/84 377/59/59 375/61/61
f 360/85/85 376/84/84 375/61/61
f 359/86/86 360/85/85 375/61/61
f 374/80/80 359/86/86 375/61/61
f 358/87/87 359/86/86 374/80/80
f 358/87/87 374/80/80 373/78/78
f 358/87/87 373/78/78 364/1/1
f 373/78/78 372/77/77 364/1/1
f 372/77/77 371/2/2 364/1/1
f 372/77/77 370/76/76 371/2/2
f 370/76/76 369/5/5 371/2/2
f 370/76/76 368/75/75 369/5/5
f 368/75/75 365/7/7 369/5/5
f 368/75/75 367/74/74 365/7/7
f 367/74/74 366/88/88 365/7/7
f 364/1/1 363/89/89 358/87/87
f 363/89/89 362/90/90 358/87/87
f 360/85/85 358/87/87 362/90/90
f 362/90/90 361/91/91 360/85/85
f 360/85/85 359/86/86 358/87/87
f 348/92/92 351/93/93 357/94/94
f 357/94/94 355/95/95 356/96/96
f 351/93/93 355/95/95 357/94/94
f 351/93/93 353/97/97 355/95/95
f 356/96/96 344/98/98 343/99/99
f 355/95/95 344/98/98 356/96/96
f 355/95/95 345/100/100 344/98/98
f 353/97/97 345/100/100 355/95/95
f 353/97/97 347/101/101 345/100/100
f 354/102/102 347/101/101 353/97/97
f 352/103/103 354/102/102 353/97/97
f 352/103/103 353/97/97 351/93/93
f 349/104/104 352/103/103 351/93/93
f 349/104/104 351/93/93 348/92/92
f 350/105/105 349/104/104 348/92/92
f 347/101/101 346/106/106 345/100/100
f 345/100/100 342/107/107 344/98/98
f 344/98/98 342/107/107 340/108/108
f 344/98/98 340/108/108 343/99/99
f 342/107/107 341/109/109 340/108/108
f 337/110/110 336/111/111 335/112/112
f 335/112/112 338/113/113 337/110/110
f 335/112/112 334/114/114 333/115/115
f 338/113/113 335/112/112 333/115/115
f 338/113/113 333/115/115 332/116/116
f 339/117/117 338/113/113 332/116/116
f 339/117/117 332/116/116 330/118/118
f 328/119/119 339/117/117 330/118/118
f 327/120/120 339/117/117 328/119/119
f 339/117/117 327/120/120 311/121/121
f 338/113/113 339/117/117 311/121/121
f 311/121/121 308/122/122 338/113/113
f 338/113/113 308/122/122 337/110/110
f 305/123/123 337/110/110 308/122/122
f 336/111/111 337/110/110 305/123/123
f 302/124/124 336/111/111 305/123/123
f 336/111/111 302/124/124 335/112/112
f 302/124/124 300/125/125 335/112/112
f 335/112/112 300/125/125 334/114/114
f 300/125/125 298/126/126 334/114/114
f 334/114/114 298/126/126 295/127/127
f 334/114/114 295/127/127 312/128/128
f 333/115/115 334/114/114 312/128/128
f 333/115/115 312/128/128 313/15/129
f 332/116/116 333/115/115 313/15/129
f 332/116/116 313/15/129 320/17/130
f 330/118/118 332/116/116 320/17/130
f 330/118/118 320/17/130 331/129/131
f 329/130/132 330/118/118 331/129/131
f 328/119/119 330/118/118 329/130/132
f 325/131/133 328/119/119 329/130/132
f 321/132/134 328/119/119 325/131/133
f 321/132/134 327/120/120 328/119/119
f 322/133/135 327/120/120 321/132/134
f 322/133/135 311/121/121 327/120/120
f 311/121/121 322/133/135 310/134/136
f 326/135/137 321/132/134 325/131/133
f 321/132/134 324/136/138 323/137/72
f 323/137/72 310/134/136 321/132/134
f 310/134/136 322/133/135 321/132/134
f 320/17/130 313/15/129 319/16/139
f 313/15/129 318/14/140 319/16/139
f 314/13/141 318/14/140 313/15/129
f 318/14/140 314/13/141 315/9/142
f 315/9/142 314/13/141 296/10/143
f 315/9/142 296/10/143 317/11/144
f 317/11/144 316/12/145 315/9/142
f 313/15/129 296/10/143 314/13/141
f 313/15/129 312/128/128 296/10/143
f 296/10/143 312/128/128 295/127/127
f 308/122/122 311/121/121 310/134/136
f 310/134/136 309/138/146 308/122/122
f 308/122/122 309/138/146 307/139/147
f 307/139/147 305/123/123 308/122/122
f 305/123/123 307/139/147 306/140/68
f 306/140/68 304/141/148 305/123/123
f 304/141/148 302/124/124 305/123/123
f 304/141/148 303/142/149 302/124/124
f 303/142/149 301/143/150 302/124/124
f 302/124/124 301/143/150 300/125/125
f 301/143/150 299/144/151 300/125/125
f 300/125/125 299/144/151 298/126/126
f 299/144/151 292/145/152 298/126/126
f 298/126/126 292/145/152 290/146/153
f 298/126/126 290/146/153 295/127/127
f 295/127/127 290/146/153 293/147/154
f 295/127/127 293/147/154 297/148/155
f 297/148/155 296/10/143 295/127/127
f 290/146/153 294/149/156 293/147/154
f 292/145/152 291/150/157 290/146/153
f 286/145/158 289/150/159 285/146/160
f 285/146/160 288/149/161 284/147/162
f 276/143/163 287/144/164 275/125/165
f 275/125/165 287/144/164 282/126/166
f 287/144/164 286/145/158 282/126/166
f 282/126/166 286/145/158 285/146/160
f 282/126/166 285/146/160 281/127/167
f 281/127/167 285/146/160 284/147/162
f 273/128/168 281/127/167 284/147/162
f 284/147/162 283/148/169 273/128/168
f 283/148/169 272/10/10 273/128/168
f 275/125/165 282/126/166 274/114/170
f 274/114/170 282/126/166 281/127/167
f 274/114/170 281/127/167 273/128/168
f 252/138/171 255/122/172 249/133/173
f 267/123/174 255/122/172 252/138/171
f 252/138/171 280/139/175 267/123/174
f 267/123/174 280/139/175 279/140/176
f 279/140/176 278/141/177 267/123/174
f 278/141/177 268/124/178 267/123/174
f 278/141/177 277/142/179 268/124/178
f 277/142/179 276/143/163 268/124/178
f 268/124/178 276/143/163 275/125/165
f 268/124/178 275/125/165 264/112/180
f 264/112/180 275/125/165 274/114/170
f 264/112/180 274/114/170 262/115/181
f 262/115/181 274/114/170 273/128/168
f 262/115/181 273/128/168 261/15/15
f 261/15/15 273/128/168 272/10/10
f 272/10/10 270/13/13 261/15/15
f 269/9/9 270/13/13 272/10/10
f 271/14/14 270/13/13 269/9/9
f 267/123/174 265/110/182 255/122/172
f 263/113/183 255/122/172 265/110/182
f 254/121/184 255/122/172 263/113/183
f 263/113/183 256/117/185 254/121/184
f 256/117/185 263/113/183 260/116/186
f 256/117/185 260/116/186 257/118/187
f 266/111/188 268/124/178 264/112/180
f 268/124/178 266/111/188 267/123/174
f 266/111/188 265/110/182 267/123/174
f 265/110/182 266/111/188 264/112/180
f 264/112/180 263/113/183 265/110/182
f 263/113/183 264/112/180 262/115/181
f 263/113/183 262/115/181 260/116/186
f 260/116/186 262/115/181 261/15/15
f 260/116/186 261/15/15 259/17/17
f 257/118/187 260/116/186 259/17/17
f 257/118/187 259/17/17 258/129/189
f 246/130/190 257/118/187 258/129/189
f 247/119/191 257/118/187 246/130/190
f 247/119/191 256/117/185 257/118/187
f 248/120/192 256/117/185 247/119/191
f 256/117/185 248/120/192 254/121/184
f 249/133/173 254/121/184 248/120/192
f 255/122/172 254/121/184 249/133/173
f 244/132/193 253/136/194 251/137/195
f 249/133/173 250/134/196 252/138/171
f 251/137/195 250/134/196 244/132/193
f 250/134/196 249/133/173 244/132/193
f 249/133/173 248/120/192 244/132/193
f 244/132/193 248/120/192 247/119/191
f 244/132/193 247/119/191 243/131/197
f 243/131/197 247/119/191 246/130/190
f 245/135/198 244/132/193 243/131/197
f 242/151/199 238/152/200 239/153/201
f 241/154/202 239/153/201 240/155/203
f 240/155/203 223/156/204 222/157/205
f 239/153/201 223/156/204 240/155/203
f 239/153/201 225/158/206 223/156/204
f 238/152/200 225/158/206 239/153/201
f 225/158/206 238/152/200 234/159/207
f 237/160/208 234/159/207 238/152/200
f 234/159/207 237/160/208 235/161/209
f 237/160/208 236/162/210 235/161/209
f 235/161/209 227/163/211 234/159/207
f 225/158/206 234/159/207 227/163/211
f 221/164/212 201/165/213 220/166/214
f 221/164/212 233/167/215 201/165/213
f 224/168/216 233/167/215 221/164/212
f 224/168/216 232/169/217 233/167/215
f 226/170/218 232/169/217 224/168/216
f 226/170/218 228/171/219 232/169/217
f 201/165/213 219/172/220 203/173/221
f 233/167/215 219/172/220 201/165/213
f 219/172/220 233/167/215 217/174/222
f 232/169/217 217/174/222 233/167/215
f 232/169/217 214/175/223 217/174/222
f 228/171/219 214/175/223 232/169/217
f 228/171/219 213/176/224 214/175/223
f 231/177/225 213/176/224 228/171/219
f 230/178/226 231/177/225 228/171/219
f 229/179/227 230/178/226 228/171/219
f 227/163/211 229/179/227 228/171/219
f 228/171/219 226/170/218 227/163/211
f 227/163/211 226/170/218 225/158/206
f 225/158/206 226/170/218 224/168/216
f 225/158/206 224/168/216 223/156/204
f 223/156/204 224/168/216 221/164/212
f 223/156/204 221/164/212 222/157/205
f 222/157/205 221/164/212 220/166/214
f 217/174/222 218/180/228 219/172/220
f 219/172/220 218/180/228 203/173/221
f 203/173/221 218/180/228 200/181/229
f 217/174/222 200/181/229 218/180/228
f 200/181/229 217/174/222 194/182/230
f 214/175/223 194/182/230 217/174/222
f 210/183/231 216/184/232 209/185/233
f 209/185/233 216/184/232 208/186/234
f 216/184/232 215/187/235 208/186/234
f 214/175/223 196/188/236 194/182/230
f 213/176/224 196/188/236 214/175/223
f 213/176/224 212/189/237 196/188/236
f 212/189/237 211/190/238 196/188/236
f 196/188/236 211/190/238 195/191/239
f 211/190/238 210/183/231 195/191/239
f 195/191/239 210/183/231 209/185/233
f 195/191/239 209/185/233 197/192/240
f 197/192/240 209/185/233 208/186/234
f 208/186/234 199/193/241 197/192/240
f 208/186/234 207/194/242 199/193/241
f 207/194/242 206/195/243 199/193/241
f 199/193/241 206/195/243 205/196/244
f 199/193/241 205/196/244 200/181/229
f 200/181/229 205/196/244 204/197/245
f 200/181/229 204/197/245 203/173/221
f 203/173/221 204/197/245 202/198/246
f 203/173/221 202/198/246 201/165/213
f 194/182/230 198/199/247 200/181/229
f 200/181/229 198/199/247 199/193/241
f 197/192/240 199/193/241 198/199/247
f 194/182/230 197/192/240 198/199/247
f 194/182/230 195/191/239 197/192/240
f 196/188/236 195/191/239 194/182/230
f 183/200/248 182/201/249 193/202/250
f 192/203/251 183/200/248 193/202/250
f 184/204/252 183/200/248 192/203/251
f 191/205/253 184/204/252 192/203/251
f 186/206/254 184/204/252 191/205/253
f 189/207/255 186/206/254 191/205/253
f 190/208/256 188/209/257 189/207/255
f 188/209/257 186/206/254 189/207/255
f 188/209/257 187/210/258 186/206/254
f 187/210/258 185/211/259 186/206/254
f 186/206/254 185/211/259 184/204/252
f 185/211/259 179/212/260 184/204/252
f 184/204/252 179/212/260 183/200/248
f 179/212/260 176/213/261 183/200/248
f 183/200/248 176/213/261 182/201/249
f 176/213/261 180/214/262 182/201/249
f 176/213/261 177/215/263 180/214/262
f 177/215/263 181/216/264 180/214/262
f 179/212/260 178/217/265 176/213/261
f 178/217/265 177/215/263 176/213/261
f 170/87/266 166/78/267 164/1/268
f 164/1/268 175/89/269 170/87/266
f 175/89/269 174/90/270 170/87/266
f 168/85/271 170/87/266 174/90/270
f 174/90/270 173/91/272 168/85/271
f 171/80/273 169/86/274 141/61/275
f 172/79/276 171/80/273 141/61/275
f 166/78/267 172/79/276 141/61/275
f 166/78/267 171/80/273 172/79/276
f 170/87/266 171/80/273 166/78/267
f 170/87/266 169/86/274 171/80/273
f 168/85/271 169/86/274 170/87/266
f 169/86/274 168/85/271 141/61/275
f 168/85/271 140/84/277 141/61/275
f 165/77/278 167/76/279 162/2/280
f 167/76/279 160/5/281 162/2/280
f 167/76/279 155/75/282 160/5/281
f 155/75/282 167/76/279 141/61/275
f 167/76/279 165/77/278 141/61/275
f 165/77/278 166/78/267 141/61/275
f 166/78/267 165/77/278 164/1/268
f 165/77/278 162/2/280 164/1/268
f 164/1/268 162/2/280 163/3/283
f 162/2/280 161/4/284 163/3/283
f 162/2/280 160/5/281 161/4/284
f 160/5/281 158/6/285 161/4/284
f 160/5/281 156/7/286 158/6/285
f 155/75/282 156/7/286 160/5/281
f 155/75/282 142/74/287 156/7/286
f 156/7/286 159/8/288 158/6/285
f 142/74/287 157/88/289 156/7/286
f 142/74/287 155/75/282 141/61/275
f 140/84/277 139/59/290 141/61/275
f 139/59/290 154/60/291 141/61/275
f 135/62/292 154/60/291 139/59/290
f 154/60/291 135/62/292 141/61/275
f 135/62/292 153/63/293 141/61/275
f 153/63/293 152/64/294 141/61/275
f 152/64/294 151/65/295 141/61/275
f 151/65/295 150/66/296 141/61/275
f 150/66/296 149/67/297 141/61/275
f 150/66/296 148/68/298 149/67/297
f 149/67/297 148/68/298 141/61/275
f 148/68/298 147/69/299 141/61/275
f 147/69/299 146/70/300 141/61/275
f 146/70/300 145/71/301 141/61/275
f 145/71/301 144/72/302 141/61/275
f 144/72/302 143/73/303 141/61/275
f 142/74/287 143/73/303 144/72/302
f 143/73/303 142/74/287 141/61/275
f 139/59/290 140/84/277 138/83/304
f 138/83/304 135/62/292 139/59/290
f 138/83/304 137/81/305 135/62/292
f 137/81/305 136/82/306 135/62/292
f 134/105/307 129/104/308 128/92/309
f 132/101/310 133/106/311 119/100/312
f 121/97/313 132/101/310 119/100/312
f 131/102/314 132/101/310 121/97/313
f 130/103/315 131/102/314 121/97/313
f 130/103/315 121/97/313 122/93/316
f 129/104/308 130/103/315 122/93/316
f 129/104/308 122/93/316 128/92/309
f 128/92/309 122/93/316 127/94/317
f 122/93/316 120/95/318 127/94/317
f 127/94/317 120/95/318 126/96/319
f 120/95/318 117/98/320 126/96/319
f 126/96/319 117/98/320 125/99/321
f 117/98/320 123/108/322 125/99/321
f 117/98/320 118/107/323 123/108/322
f 118/107/323 124/109/324 123/108/322
f 122/93/316 121/97/313 120/95/318
f 121/97/313 119/100/312 120/95/318
f 120/95/318 119/100/312 117/98/320
f 119/100/312 118/107/323 117/98/320
f 116/197/325 115/218/326 114/198/327
f 112/161/328 109/163/329 110/159/330
f 111/160/331 113/162/332 112/161/328
f 110/159/330 111/160/331 112/161/328
f 111/160/331 110/159/330 92/152/333
f 91/158/334 92/152/333 110/159/330
f 110/159/330 95/170/335 91/158/334
f 110/159/330 109/163/329 95/170/335
f 95/170/335 109/163/329 108/179/336
f 108/179/336 96/171/337 95/170/335
f 108/179/336 107/178/338 96/171/337
f 107/178/338 106/177/339 96/171/337
f 106/177/339 97/176/340 96/171/337
f 102/186/341 105/195/342 103/193/343
f 103/193/343 105/195/342 72/196/344
f 101/184/345 104/187/346 102/186/341
f 72/196/344 73/181/347 87/199/348
f 87/199/348 103/193/343 72/196/344
f 83/192/349 103/193/343 87/199/348
f 102/186/341 103/193/343 83/192/349
f 83/192/349 84/185/350 102/186/341
f 84/185/350 101/184/345 102/186/341
f 100/183/351 101/184/345 84/185/350
f 85/191/352 100/183/351 84/185/350
f 99/190/353 100/183/351 85/191/352
f 94/188/354 99/190/353 85/191/352
f 98/189/355 99/190/353 94/188/354
f 97/176/340 98/189/355 94/188/354
f 97/176/340 94/188/354 88/175/356
f 96/171/337 97/176/340 88/175/356
f 96/171/337 88/175/356 89/169/357
f 95/170/335 96/171/337 89/169/357
f 95/170/335 89/169/357 90/168/358
f 91/158/334 95/170/335 90/168/358
f 88/175/356 94/188/354 86/182/359
f 94/188/354 85/191/352 86/182/359
f 93/151/360 92/152/333 81/153/361
f 92/152/333 91/158/334 81/153/361
f 81/153/361 91/158/334 79/156/362
f 91/158/334 90/168/358 79/156/362
f 79/156/362 90/168/358 76/164/363
f 90/168/358 75/167/364 76/164/363
f 90/168/358 89/169/357 75/167/364
f 89/169/357 74/174/365 75/167/364
f 89/169/357 88/175/356 74/174/365
f 88/175/356 86/182/359 74/174/365
f 73/181/347 74/174/365 86/182/359
f 86/182/359 87/199/348 73/181/347
f 86/182/359 83/192/349 87/199/348
f 86/182/359 85/191/352 83/192/349
f 85/191/352 84/185/350 83/192/349
f 82/154/366 81/153/361 80/155/367
f 81/153/361 79/156/362 80/155/367
f 80/155/367 79/156/362 78/157/368
f 79/156/362 76/164/363 78/157/368
f 78/157/368 76/164/363 77/166/369
f 76/164/363 69/165/370 77/166/369
f 76/164/363 75/167/364 69/165/370
f 75/167/364 68/172/371 69/165/370
f 68/172/371 75/167/364 74/174/365
f 74/174/365 67/180/372 68/172/371
f 74/174/365 73/181/347 67/180/372
f 67/180/372 73/181/347 72/196/344
f 72/196/344 66/173/373 67/180/372
f 72/196/344 71/197/374 66/173/373
f 66/173/373 71/197/374 70/198/375
f 66/173/373 70/198/375 69/165/370
f 69/165/370 68/172/371 66/173/373
f 68/172/371 67/180/372 66/173/373
f 55/200/376 54/201/377 65/202/378
f 64/203/379 55/200/376 65/202/378
f 56/204/380 55/200/376 64/203/379
f 63/205/381 56/204/380 64/203/379
f 58/206/382 56/204/380 63/205/381
f 61/207/383 58/206/382 63/205/381
f 62/208/384 60/209/385 61/207/383
f 60/209/385 58/206/382 61/207/383
f 60/209/385 59/210/386 58/206/382
f 59/210/386 57/211/387 58/206/382
f 58/206/382 57/211/387 56/204/380
f 57/211/387 51/212/388 56/204/380
f 56/204/380 51/212/388 55/200/376
f 51/212/388 48/213/389 55/200/376
f 55/200/376 48/213/389 54/201/377
f 48/213/389 52/214/390 54/201/377
f 48/213/389 49/215/391 52/214/390
f 49/215/391 53/216/392 52/214/390
f 51/212/388 50/217/393 48/213/389
f 50/217/393 49/215/391 48/213/389
f 47/197/394 46/218/395 45/198/396
f 33/42/397 44/43/398 43/44/399
f 43/44/399 42/45/400 33/42/397
f 42/45/400 35/46/401 33/42/397
f 42/45/400 36/47/402 35/46/401
f 37/36/403 41/37/404 38/38/405
f 41/37/404 40/39/406 38/38/405
f 39/40/407 38/38/405 40/39/406
f 38/38/405 39/40/407 4/32/408
f 14/41/409 38/38/405 4/32/408
f 38/38/405 14/41/409 37/36/403
f 37/36/403 14/41/409 8/24/410
f 36/47/402 37/36/403 8/24/410
f 35/46/401 36/47/402 8/24/410
f 34/48/411 35/46/401 8/24/410
f 33/42/397 35/46/401 34/48/411
f 33/42/397 34/48/411 8/24/410
f 32/49/412 33/42/397 8/24/410
f 31/50/413 32/49/412 8/24/410
f 30/51/414 31/50/413 8/24/410
f 28/52/415 30/51/414 8/24/410
f 18/18/416 29/19/417 19/20/418
f 29/19/417 20/21/419 19/20/418
f 27/53/420 28/52/415 8/24/410
f 28/52/415 27/53/420 26/54/421
f 26/54/421 27/53/420 8/24/410
f 25/55/422 26/54/421 8/24/410
f 24/56/423 25/55/422 8/24/410
f 23/57/424 24/56/423 8/24/410
f 22/58/425 23/57/424 8/24/410
f 21/28/426 22/58/425 8/24/410
f 20/21/419 22/58/425 21/28/426
f 20/21/419 21/28/426 8/24/410
f 19/20/418 20/21/419 8/24/410
f 9/23/427 19/20/418 8/24/410
f 18/18/416 19/20/418 9/23/427
f 15/25/428 18/18/416 9/23/427
f 17/29/429 18/18/416 15/25/428
f 16/30/430 17/29/429 15/25/428
f 16/30/430 15/25/428 5/26/431
f 6/31/432 16/30/430 5/26/431
f 15/25/428 9/23/427 10/22/433
f 5/26/431 15/25/428 10/22/433
f 5/26/431 10/22/433 11/27/434
f 4/32/408 5/26/431 11/27/434
f 4/32/408 11/27/434 13/33/435
f 13/33/435 14/41/409 4/32/408
f 14/41/409 13/33/435 8/24/410
f 13/33/435 12/34/436 8/24/410
f 11/27/434 12/34/436 13/33/435
f 12/34/436 11/27/434 8/24/410
f 11/27/434 10/22/433 8/24/410
f 10/22/433 9/23/427 8/24/410
f 7/35/437 6/31/432 4/32/408
f 6/31/432 5/26/431 4/32/408
f 3/186/438 2/194/439 1/195/440
