o granny_grnybody.smd
v -0.020845 1.320119 -0.032615
v -0.017264 1.295147 -0.046527
v -0.020768 1.319816 -0.032424
v -0.017337 1.295406 -0.046755
v -0.037965 1.285863 -0.045863
v -0.056831 1.308933 -0.028477
v -0.076757 1.279503 -0.017056
v -0.069279 1.293410 0.007151
v -0.077020 1.279671 -0.017198
v -0.069566 1.293580 0.007078
v -0.056701 1.316171 0.006706
v -0.030207 1.321731 -0.003906
v -0.056896 1.316441 0.006594
v -0.057021 1.309181 -0.028645
v -0.038115 1.286077 -0.046081
v -0.057311 1.265524 -0.036303
v -0.057530 1.265686 -0.036494
v -0.030145 1.321396 -0.003778
v -0.029465 1.338675 0.004676
v 0.004693 1.350216 0.014708
v 0.004605 1.349883 0.014853
v 0.031213 1.328629 0.015643
v 0.031419 1.328914 0.015532
v 0.049824 1.311181 -0.015001
v 0.012087 1.334487 -0.029307
v 0.008764 1.295067 -0.048691
v -0.027683 1.289301 -0.045429
v 0.008848 1.295319 -0.048924
v -0.027713 1.289558 -0.045666
v -0.037070 1.325477 -0.030160
v -0.037096 1.325776 -0.030370
v -0.029408 1.338344 0.004827
v 0.012178 1.334794 -0.029499
v 0.050025 1.311442 -0.015165
v 0.034940 1.277932 -0.035494
v 0.035149 1.278127 -0.035691
v 0.042111 1.315802 0.001508
v 0.062168 1.304014 0.018335
v 0.061868 1.303833 0.018396
v 0.064842 1.277517 0.022959
v 0.065179 1.277577 0.022962
v 0.071636 1.256791 0.003298
v 0.066760 1.289912 -0.013489
v 0.044371 1.270255 -0.033733
v 0.029621 1.285682 -0.039904
v 0.044631 1.270375 -0.033902
v 0.029830 1.285869 -0.040103
v 0.038867 1.311479 -0.026996
v 0.039088 1.311715 -0.027162
v 0.041906 1.315518 0.001621
v 0.067058 1.290061 -0.013603
v 0.071966 1.256844 0.003230
v 0.052934 1.245644 -0.018909
v 0.053232 1.245699 -0.019034
v 0.052723 1.269609 -0.036783
v 0.066494 1.249757 -0.026567
v 0.073110 1.263278 -0.007282
v 0.037713 1.253143 -0.043370
v 0.052473 1.269473 -0.036607
v 0.037502 1.253052 -0.043167
v 0.066193 1.249725 -0.026450
v 0.043938 1.238259 -0.037919
v 0.063317 1.227859 -0.013634
v 0.044810 1.222633 -0.027102
v 0.063621 1.227786 -0.013695
v 0.045067 1.222550 -0.027212
v 0.044179 1.238262 -0.038082
v 0.068674 1.245171 -0.002588
v 0.068342 1.245227 -0.002588
v 0.072782 1.263209 -0.007210
v 0.060652 1.274155 -0.018735
v 0.060922 1.274352 -0.018866
v -0.031342 1.317742 -0.040484
v -0.011885 1.332082 -0.038203
v -0.031236 1.317471 -0.040275
v -0.021346 1.269051 -0.056554
v 0.000232 1.272619 -0.058341
v -0.002684 1.309006 -0.057584
v 0.023026 1.301804 -0.047279
v 0.007456 1.321153 -0.034842
v 0.022866 1.301574 -0.047065
v 0.007295 1.320866 -0.034668
v -0.002738 1.308762 -0.057343
v -0.032429 1.297065 -0.054999
v -0.032492 1.297278 -0.055246
v -0.011848 1.332382 -0.038414
v -0.021309 1.268903 -0.056296
v 0.000170 1.272459 -0.058085
v 0.018728 1.271125 -0.050875
v 0.018881 1.271287 -0.051107
v -0.039468 1.247145 -0.052752
v -0.047052 1.237791 -0.050745
v -0.039387 1.247024 -0.052500
v -0.078126 1.236621 -0.031815
v -0.080007 1.251522 -0.035188
v -0.077830 1.236660 -0.031706
v -0.067653 1.226802 -0.039736
v -0.065430 1.245251 -0.048347
v -0.049670 1.224159 -0.044622
v -0.047161 1.237835 -0.050982
v -0.054337 1.259070 -0.050562
v -0.054203 1.258899 -0.050326
v -0.068591 1.259117 -0.039034
v -0.080261 1.251623 -0.035360
v -0.067878 1.226757 -0.039902
v -0.049817 1.224110 -0.044820
v -0.065626 1.245327 -0.048558
v -0.068772 1.259333 -0.039233
vn -0.5115 -0.8266 -0.2347
vn -0.4768 -0.0339 -0.8784
vn 0.1866 -0.8487 -0.4948
vn -0.9073 0.4167 0.0568
vn -0.3038 0.9526 0.0146
vn 0.3891 0.2926 0.8735
vn 0.5324 0.5318 0.6586
vn 0.1089 0.8251 -0.5545
vn 0.2339 -0.3985 -0.8868
vn 0.7087 -0.4996 0.4982
vn 0.1910 -0.5198 0.8326
vn 0.1853 -0.1420 0.9724
vn -0.8417 -0.4083 0.3532
vn -0.0142 0.3001 0.9538
vn 0.4769 0.0335 0.8783
vn 0.8539 -0.2581 0.4520
vn 0.9357 -0.0702 0.3457
vn 0.6749 0.2394 -0.6980
vn 0.2573 -0.8041 0.5359
vn -0.0216 -0.9201 0.3911
vn 0.7956 -0.4471 -0.4087
vn -0.3369 -0.8324 0.4400
vn -0.4819 -0.5317 -0.6964
vn 0.1583 -0.4178 -0.8946
vn 0.9357 0.2784 -0.2166
vn 0.4276 -0.2037 0.8807
vn -0.1479 -0.4137 0.8983
vn -0.6979 -0.3784 0.6080
vn -0.7848 0.0726 -0.6155
vn 0.1478 0.4134 -0.8985
vn -0.0722 0.9972 0.0179
vn 0.6366 0.7009 0.3217
vn 0.0395 -0.2109 0.9767
vn -0.1627 0.1763 0.9708
vn -0.8328 0.5526 0.0321
vn -0.4223 -0.2359 0.8752
vn -0.7225 0.3843 0.5747
vn -0.3741 0.3583 0.8554
vn 0.2450 0.9684 0.0467
vn 0.8126 0.4271 0.3965
vn 0.6313 -0.2631 0.7296
vn 0.8143 -0.1216 -0.5675
vn -0.5940 0.0135 0.8043
vn 0.1270 0.7049 -0.6979
vn -0.7934 0.5673 0.2205
vn -0.8144 0.1215 0.5674
vn -0.4691 -0.4060 0.7843
vn -0.8446 -0.4813 0.2344
vn -0.9695 -0.2445 -0.0154
vn 0.0492 -0.9273 -0.3712
vn 0.5941 -0.7868 0.1669
vn 0.0940 -0.4440 -0.8911
vn -0.2986 0.1758 -0.9380
vn -0.9989 0.0426 -0.0179
vn -0.6159 -0.7831 0.0858
vn 0.4101 -0.7543 -0.5127
vn 0.8385 -0.5245 0.1476
vn -0.8754 0.0107 0.4832
vn -0.5648 0.0991 0.8193
vn -0.1463 0.9677 0.2053
vn -0.9672 0.2249 0.1182
vn -0.0453 0.8111 -0.5832
vn -0.2579 0.1473 -0.9549
vn 0.8681 0.2722 -0.4150
vn 0.3012 -0.2812 -0.9112
vn -0.8172 -0.5644 -0.1168
vn -0.3262 -0.7075 0.6269
vn 0.5941 -0.1190 0.7956
vn 0.5561 0.6224 0.5507
vn -0.8682 -0.2723 0.4149
vn -0.6251 -0.3320 0.7065
vn -0.9427 -0.3112 -0.1201
vn -0.0410 -0.9681 0.2470
vn 0.6739 -0.5001 -0.5439
vn 0.9743 0.1935 -0.1152
vn -0.4755 -0.4930 0.7286
vn -0.1968 -0.1659 0.9663
vn -0.7104 0.6348 0.3039
vn -0.7863 -0.4597 0.4128
vn -0.7356 0.4685 -0.4893
vn -0.5523 -0.2276 -0.8020
vn 0.2514 0.7471 -0.6153
vn 0.1449 -0.0482 -0.9883
vn -0.1799 -0.9837 0.0036
vn 0.3867 -0.6529 0.6513
vn 0.7109 0.4180 0.5656
vn 0.1011 0.9129 0.3954
vn -0.2515 -0.7472 0.6152
vn -0.0069 -0.5664 0.8241
vn -0.4104 -0.8990 0.1528
vn 0.6724 -0.3371 0.6590
vn 0.3912 0.8356 0.3857
vn -0.4404 0.7467 0.4985
vn 0.2982 -0.9474 0.1163
vn -0.4715 -0.5319 -0.7034
vn -0.1394 -0.1117 -0.9839
vn 0.9177 -0.1312 0.3749
vn 0.4513 0.7938 -0.4076
vn 0.3520 -0.1419 0.9252
vn -0.7897 0.0387 0.6123
vn -0.5924 0.6024 -0.5350
vn -0.9700 -0.2033 -0.1332
vn -0.0907 -0.8511 0.5172
vn 0.5700 -0.8217 -0.0044
vn 0.5375 0.0976 -0.8376
vn 0.7822 -0.6208 0.0517
vn 0.5924 -0.6025 0.5349
vn 0.2556 -0.5858 0.7691
vt 0.600196 -0.010000
vt 0.541147 -0.363350
vt 0.989995 -0.113419
vt 0.010000 -0.335893
vt 0.148396 -0.564309
vt 0.564380 -0.692537
vt 0.990000 -0.372302
vt 0.177433 -0.088229
vt 0.980843 -0.605699
f 105/1/1 107/2/2 106/3/3
f 104/4/4 107/2/2 105/1/1
f 104/4/4 108/5/5 107/2/2
f 103/5/6 108/5/5 104/4/4
f 103/5/6 102/6/7 108/5/5
f 102/6/7 101/6/8 108/5/5
f 108/5/5 101/6/8 107/2/2
f 107/2/2 101/6/8 100/7/9
f 107/2/2 100/7/9 106/3/3
f 99/3/10 106/3/3 100/7/9
f 99/3/10 97/1/11 106/3/3
f 97/1/11 105/1/1 106/3/3
f 97/1/11 96/8/12 105/1/1
f 96/8/12 94/8/13 105/1/1
f 94/8/13 104/4/4 105/1/1
f 95/4/14 104/4/4 94/8/13
f 95/4/14 103/5/6 104/4/4
f 95/4/14 98/2/15 103/5/6
f 98/2/15 102/6/7 103/5/6
f 98/2/15 92/7/16 102/6/7
f 92/7/16 93/9/17 102/6/7
f 102/6/7 93/9/17 101/6/8
f 93/9/17 91/9/18 101/6/8
f 101/6/8 91/9/18 100/7/9
f 92/7/16 100/7/9 91/9/18
f 92/7/16 99/3/10 100/7/9
f 99/3/10 92/7/16 98/2/15
f 97/1/11 99/3/10 98/2/15
f 97/1/11 98/2/15 95/4/14
f 96/8/12 97/1/11 95/4/14
f 96/8/12 95/4/14 94/8/13
f 93/9/17 92/7/16 91/9/18
f 89/9/19 88/7/20 90/9/21
f 87/3/22 76/3/23 77/7/24
f 88/7/20 87/3/22 77/7/24
f 88/7/20 77/7/24 90/9/21
f 79/6/25 90/9/21 77/7/24
f 89/9/19 90/9/21 79/6/25
f 81/6/26 89/9/19 79/6/25
f 88/7/20 89/9/19 81/6/26
f 83/2/27 88/7/20 81/6/26
f 87/3/22 88/7/20 83/2/27
f 84/1/28 87/3/22 83/2/27
f 87/3/22 84/1/28 76/3/23
f 84/1/28 85/1/29 76/3/23
f 85/1/29 78/2/30 76/3/23
f 86/4/31 78/2/30 85/1/29
f 86/4/31 80/5/32 78/2/30
f 82/5/33 80/5/32 86/4/31
f 74/4/34 82/5/33 86/4/31
f 74/4/34 86/4/31 73/8/35
f 73/8/35 86/4/31 85/1/29
f 75/8/36 73/8/35 85/1/29
f 84/1/28 75/8/36 85/1/29
f 75/8/36 84/1/28 74/4/34
f 84/1/28 83/2/27 74/4/34
f 74/4/34 83/2/27 82/5/33
f 83/2/27 81/6/26 82/5/33
f 82/5/33 81/6/26 80/5/32
f 81/6/26 79/6/25 80/5/32
f 80/5/32 79/6/25 78/2/30
f 78/2/30 79/6/25 77/7/24
f 78/2/30 77/7/24 76/3/23
f 75/8/36 74/4/34 73/8/35
f 71/8/37 70/4/38 72/8/39
f 57/4/40 68/5/41 56/2/42
f 69/5/43 68/5/41 57/4/40
f 70/4/38 69/5/43 57/4/40
f 70/4/38 57/4/40 72/8/39
f 72/8/39 57/4/40 55/1/44
f 71/8/37 72/8/39 55/1/44
f 59/1/45 71/8/37 55/1/44
f 71/8/37 59/1/45 70/4/38
f 59/1/45 61/2/46 70/4/38
f 70/4/38 61/2/46 69/5/43
f 61/2/46 63/6/47 69/5/43
f 69/5/43 63/6/47 68/5/41
f 64/9/48 62/7/49 66/9/50
f 63/6/47 65/6/51 68/5/41
f 68/5/41 65/6/51 56/2/42
f 56/2/42 65/6/51 67/7/52
f 56/2/42 67/7/52 58/3/53
f 60/3/54 58/3/53 67/7/52
f 62/7/49 60/3/54 67/7/52
f 62/7/49 67/7/52 66/9/50
f 65/6/51 66/9/50 67/7/52
f 64/9/48 66/9/50 65/6/51
f 63/6/47 64/9/48 65/6/51
f 62/7/49 64/9/48 63/6/47
f 61/2/46 62/7/49 63/6/47
f 60/3/54 62/7/49 61/2/46
f 59/1/45 60/3/54 61/2/46
f 60/3/54 59/1/45 58/3/53
f 59/1/45 55/1/44 58/3/53
f 55/1/44 56/2/42 58/3/53
f 57/4/40 56/2/42 55/1/44
f 53/9/55 54/9/56 52/6/57
f 50/8/58 39/4/59 37/8/60
f 50/8/58 48/1/61 39/4/59
f 48/1/61 50/8/58 49/1/62
f 48/1/61 49/1/62 47/3/63
f 49/1/62 51/2/64 47/3/63
f 51/2/64 46/7/65 47/3/63
f 51/2/64 52/6/57 46/7/65
f 52/6/57 54/9/56 46/7/65
f 44/7/66 46/7/65 54/9/56
f 53/9/55 44/7/66 54/9/56
f 44/7/66 53/9/55 42/6/67
f 42/6/67 53/9/55 52/6/57
f 42/6/67 52/6/57 41/5/68
f 41/5/68 52/6/57 51/2/64
f 38/4/69 41/5/68 51/2/64
f 38/4/69 51/2/64 49/1/62
f 37/8/60 38/4/69 49/1/62
f 50/8/58 37/8/60 49/1/62
f 39/4/59 43/2/70 40/5/71
f 48/1/61 43/2/70 39/4/59
f 48/1/61 45/3/72 43/2/70
f 45/3/72 48/1/61 47/3/63
f 45/3/72 47/3/63 46/7/65
f 44/7/66 45/3/72 46/7/65
f 45/3/72 44/7/66 43/2/70
f 43/2/70 44/7/66 42/6/67
f 43/2/70 42/6/67 40/5/71
f 40/5/71 42/6/67 41/5/68
f 40/5/71 41/5/68 38/4/69
f 39/4/59 40/5/71 38/4/69
f 39/4/59 38/4/69 37/8/60
f 35/9/73 36/9/74 34/6/75
f 32/8/76 21/4/77 19/8/78
f 32/8/76 30/1/79 21/4/77
f 30/1/79 32/8/76 31/1/80
f 30/1/79 31/1/80 29/3/81
f 31/1/80 33/2/82 29/3/81
f 33/2/82 28/7/83 29/3/81
f 33/2/82 34/6/75 28/7/83
f 34/6/75 36/9/74 28/7/83
f 26/7/84 28/7/83 36/9/74
f 35/9/73 26/7/84 36/9/74
f 26/7/84 35/9/73 24/6/85
f 24/6/85 35/9/73 34/6/75
f 24/6/85 34/6/75 23/5/86
f 23/5/86 34/6/75 33/2/82
f 20/4/87 23/5/86 33/2/82
f 20/4/87 33/2/82 31/1/80
f 19/8/78 20/4/87 31/1/80
f 32/8/76 19/8/78 31/1/80
f 21/4/77 25/2/88 22/5/89
f 30/1/79 25/2/88 21/4/77
f 30/1/79 27/3/90 25/2/88
f 27/3/90 30/1/79 29/3/81
f 27/3/90 29/3/81 28/7/83
f 26/7/84 27/3/90 28/7/83
f 27/3/90 26/7/84 25/2/88
f 25/2/88 26/7/84 24/6/85
f 25/2/88 24/6/85 22/5/89
f 22/5/89 24/6/85 23/5/86
f 22/5/89 23/5/86 20/4/87
f 21/4/77 22/5/89 20/4/87
f 21/4/77 20/4/87 19/8/78
f 18/8/91 12/8/92 13/4/93
f 16/9/94 17/9/95 15/7/96
f 3/1/97 1/1/98 12/8/92
f 18/8/91 3/1/97 12/8/92
f 3/1/97 18/8/91 11/4/99
f 11/4/99 18/8/91 13/4/93
f 11/4/99 13/4/93 10/5/100
f 10/5/100 13/4/93 14/2/101
f 9/6/102 10/5/100 14/2/101
f 9/6/102 14/2/101 15/7/96
f 17/9/95 9/6/102 15/7/96
f 7/6/103 9/6/102 17/9/95
f 16/9/94 7/6/103 17/9/95
f 16/9/94 5/7/104 7/6/103
f 5/7/104 16/9/94 15/7/96
f 5/7/104 15/7/96 4/3/105
f 15/7/96 14/2/101 4/3/105
f 14/2/101 1/1/98 4/3/105
f 14/2/101 13/4/93 1/1/98
f 13/4/93 12/8/92 1/1/98
f 2/3/106 3/1/97 6/2/107
f 6/2/107 3/1/97 11/4/99
f 6/2/107 11/4/99 8/5/108
f 8/5/108 11/4/99 10/5/100
f 8/5/108 10/5/100 9/6/102
f 7/6/103 8/5/108 9/6/102
f 7/6/103 6/2/107 8/5/108
f 5/7/104 6/2/107 7/6/103
f 5/7/104 2/3/106 6/2/107
f 2/3/106 5/7/104 4/3/105
f 2/3/106 4/3/105 1/1/98
f 3/1/97 2/3/106 1/1/98
