# Blender 5.2.0 LTS
# www.blender.org
o granny_grnybody.smd.001
v -0.005289 1.178334 0.074452
v -0.004517 1.181062 0.067431
v -0.002317 1.181066 0.067660
v -0.011623 1.164092 0.075963
v -0.004936 1.165310 0.071308
v -0.035854 1.181000 0.064171
v -0.033653 1.181005 0.064400
v -0.032332 1.178640 0.070706
v -0.034334 1.178278 0.071430
v -0.027462 1.176915 0.075729
v -0.028727 1.176293 0.077212
v -0.033997 1.166039 0.068439
v -0.028397 1.164286 0.074263
v -0.020537 1.175578 0.079967
v -0.020187 1.162649 0.076840
v -0.011958 1.176325 0.078957
v -0.007100 1.178688 0.073332
v -0.020347 1.176294 0.078123
v -0.012894 1.176943 0.077245
v -0.029465 1.200202 0.078121
v -0.029740 1.212476 0.080544
v -0.019273 1.211969 0.083884
v -0.036663 1.201404 0.071193
v -0.036942 1.213902 0.073648
v -0.034118 1.201667 0.070355
v -0.027865 1.200652 0.076378
v -0.018982 1.198752 0.081331
v -0.008343 1.212517 0.082771
v -0.008064 1.200007 0.080315
v 0.000119 1.213972 0.077504
v 0.000409 1.200747 0.074954
v -0.002649 1.200875 0.074066
v -0.000441 1.200602 0.075479
v -0.009272 1.200452 0.078280
v -0.018756 1.199268 0.079150
vn 0.0674 -0.6229 -0.7794
vn -0.0682 -0.8197 0.5687
vn 0.3291 -0.5975 -0.7312
vn 0.2671 -0.7710 0.5782
vn -0.1975 -0.5986 -0.7763
vn -0.4004 -0.5946 -0.6972
vn 0.3644 -0.7996 0.4774
vn 0.5568 0.5421 0.6294
vn 0.7554 -0.1065 0.6465
vn 0.2331 0.5007 0.8337
vn -0.0919 0.4903 0.8667
vn -0.3933 -0.7775 0.4907
vn 0.5634 -0.6844 -0.4628
vn -0.6470 -0.7294 0.2221
vn -0.4012 0.4988 0.7683
vn -0.6769 0.5393 0.5010
vn -0.5573 0.8235 -0.1062
vn -0.2925 0.8971 -0.3312
vn 0.2506 0.4234 0.8706
vn -0.0962 0.4020 0.9106
vn 0.0377 0.9222 -0.3849
vn -0.4256 0.4215 0.8007
vn 0.3518 0.8982 -0.2634
vn -0.6087 0.7917 0.0520
vn 0.5636 0.4937 0.6623
vn 0.3184 -0.8081 0.4956
vn -0.0624 -0.8687 0.4913
vn -0.4277 -0.8108 0.3996
vn -0.6597 -0.7431 0.1125
vn -0.6901 0.4909 0.5317
vn 0.5631 0.8263 0.0106
vn -0.7477 0.5550 0.3647
vn 0.5824 0.7937 0.1757
vn 0.6071 -0.7530 0.2536
vn 0.6535 0.5587 0.5107
vt 0.522036 1.019714
vt 0.523409 1.007202
vt 0.793403 0.990566
vt 0.192893 0.940694
vt 0.242201 0.956854
vt 0.078836 1.016321
vt 0.004489 1.004061
vt -0.029370 0.085089
vt -0.015302 1.005360
vt 0.185122 0.006780
vt 0.526499 0.009023
vt 0.842448 0.983261
vt 0.957747 1.049598
vt 1.029572 1.050280
vt 0.855118 0.094023
vt 1.046770 0.220424
vt 1.012942 1.072511
vt 0.796697 0.989690
vt 0.841384 0.966704
vt 0.501243 0.918328
vt 0.501179 0.947619
vt 0.160905 0.929884
vt 0.205480 0.957700
vt 1.091905 1.173979
vt 1.090311 1.061962
vt 0.843151 0.159936
vt 0.503111 0.065844
vt 0.162639 0.138183
vt -0.086614 0.192092
vt -0.088380 0.998184
vt -0.011076 1.017103
vt -0.179790 1.105169
vt -0.090465 1.110003
vt 1.092190 0.204058
vt 1.181230 1.178812
s 1
f 35/1/1 27/2/2 26/3/3
f 29/4/4 27/2/2 35/1/1
f 34/5/5 29/4/4 35/1/1
f 34/5/5 32/6/6 29/4/4
f 33/7/7 29/4/4 32/6/6
f 30/8/8 29/4/4 31/9/9
f 28/10/10 29/4/4 30/8/8
f 29/4/4 28/10/10 27/2/2
f 28/10/10 22/11/11 27/2/2
f 27/2/2 22/11/11 20/12/12
f 27/2/2 20/12/12 26/3/3
f 26/3/3 20/12/12 25/13/13
f 20/12/12 23/14/14 25/13/13
f 20/12/12 21/15/15 23/14/14
f 21/15/15 24/16/16 23/14/14
f 22/11/11 21/15/15 20/12/12
f 17/17/17 19/18/18 16/19/19
f 16/19/19 19/18/18 14/20/20
f 19/18/18 18/21/21 14/20/20
f 14/20/20 18/21/21 11/22/22
f 18/21/21 10/23/23 11/22/22
f 2/24/24 17/17/17 1/25/25
f 1/25/25 17/17/17 16/19/19
f 1/25/25 16/19/19 4/26/26
f 4/26/26 16/19/19 15/27/27
f 16/19/19 14/20/20 15/27/27
f 15/27/27 14/20/20 13/28/28
f 14/20/20 11/22/22 13/28/28
f 13/28/28 11/22/22 12/29/29
f 11/22/22 9/30/30 12/29/29
f 11/22/22 10/23/23 9/30/30
f 10/23/23 8/31/31 9/30/30
f 9/30/30 8/31/31 6/32/32
f 8/31/31 7/33/33 6/32/32
f 5/34/34 1/25/25 4/26/26
f 3/35/35 2/24/24 1/25/25
